M48
; DRILL file {KiCad 6.0.11-2627ca5db0~126~ubuntu22.04.1} date So 06 Aug 2023 14:10:22
; FORMAT={-:-/ absolute / inch / decimal}
; #@! TF.CreationDate,2023-08-06T14:10:22+02:00
; #@! TF.GenerationSoftware,Kicad,Pcbnew,6.0.11-2627ca5db0~126~ubuntu22.04.1
; #@! TF.FileFunction,Plated,1,2,PTH
FMAT,2
INCH
; #@! TA.AperFunction,Plated,PTH,ViaDrill
T1C0.0118
; #@! TA.AperFunction,Plated,PTH,ViaDrill
T2C0.0157
; #@! TA.AperFunction,Plated,PTH,ComponentDrill
T3C0.0197
; #@! TA.AperFunction,Plated,PTH,ComponentDrill
T4C0.0236
; #@! TA.AperFunction,Plated,PTH,ComponentDrill
T5C0.0689
; #@! TA.AperFunction,Plated,PTH,ComponentDrill
T6C0.1260
; #@! TA.AperFunction,Plated,PTH,ComponentDrill
T7C0.1693
; #@! TA.AperFunction,Plated,PTH,ComponentDrill
T8C0.2520
%
G90
G05
T1
X3.062Y-4.997
X3.063Y-3.548
X3.1398Y-5.4195
X3.14Y-4.83
X3.1925Y-4.4138
X3.202Y-4.122
X3.214Y-3.869
X3.262Y-4.262
X3.267Y-4.612
X3.283Y-3.194
X3.327Y-4.467
X3.3495Y-4.6195
X3.357Y-4.272
X3.3695Y-5.7095
X3.397Y-4.612
X3.502Y-5.337
X3.552Y-4.162
X3.57Y-4.206
X3.612Y-3.767
X3.6142Y-4.4189
X3.662Y-3.632
X3.722Y-4.472
X3.7445Y-5.5045
X3.752Y-5.129
X3.762Y-4.787
X3.7645Y-5.347
X3.7646Y-5.8047
X3.771Y-5.105
X3.7835Y-3.9165
X3.7858Y-3.9673
X3.832Y-4.712
X3.839Y-5.036
X3.857Y-4.667
X3.857Y-4.882
X3.865Y-5.083
X3.8661Y-5.1854
X3.887Y-4.842
X3.8909Y-5.5039
X3.897Y-5.302
X3.9045Y-5.357
X3.907Y-4.612
X3.91Y-5.114
X3.927Y-5.217
X3.937Y-4.627
X3.941Y-5.157
X3.942Y-3.632
X3.942Y-4.862
X3.942Y-5.2745
X3.947Y-4.807
X3.952Y-4.257
X3.977Y-5.317
X3.982Y-4.662
X3.9827Y-5.157
X3.9846Y-5.5063
X3.9854Y-5.0996
X3.987Y-4.817
X4.007Y-4.952
X4.012Y-4.907
X4.0197Y-5.7906
X4.022Y-4.622
X4.0236Y-5.6295
X4.0295Y-5.0195
X4.037Y-4.882
X4.057Y-4.257
X4.0886Y-4.0165
X4.0965Y-4.8472
X4.097Y-3.447
X4.098Y-3.5472
X4.1067Y-4.8941
X4.107Y-3.347
X4.1098Y-3.8701
X4.112Y-5.072
X4.1169Y-3.9165
X4.117Y-4.693
X4.124Y-3.9653
X4.1335Y-5.4967
X4.1366Y-4.9016
X4.1642Y-5.0972
X4.1934Y-4.2773
X4.1953Y-5.0657
X4.207Y-3.632
X4.213Y-4.7661
X4.2268Y-4.7996
X4.2327Y-4.4339
X4.235Y-4.2732
X4.2429Y-4.7768
X4.248Y-4.6
X4.2484Y-3.8366
X4.2508Y-4.465
X4.2598Y-4.8906
X4.2854Y-4.8543
X4.3028Y-5.0673
X4.3075Y-5.1713
X4.3437Y-4.1299
X4.414Y-4.705
X4.426Y-4.4689
X4.43Y-4.914
X4.4519Y-4.4594
X4.4535Y-5.0752
X4.4673Y-4.7626
X4.472Y-4.667
X4.4815Y-5.4528
X4.4909Y-4.5957
X4.4945Y-4.7473
X4.5063Y-5.2205
X4.5425Y-4.4988
X4.5457Y-5.7791
X4.5913Y-5.3724
X4.627Y-4.7898
X4.6303Y-5.0417
X4.6359Y-5.0985
X4.642Y-4.8173
X4.646Y-4.165
X4.655Y-3.87
X4.6571Y-4.3835
X4.6654Y-5.5161
X4.6819Y-5.0417
X4.682Y-3.117
X4.6913Y-4.7646
X4.6945Y-4.8348
X4.7094Y-5.5343
X4.765Y-4.567
X4.803Y-4.901
X4.819Y-4.459
X4.8193Y-5.8807
X4.8228Y-5.3728
X4.8433Y-3.2937
X4.876Y-4.235
T2
X3.1354Y-5.2799
X3.1496Y-3.7102
X3.2685Y-3.628
X3.337Y-5.8395
X3.347Y-5.317
X3.4189Y-4.4134
X3.457Y-3.562
X3.457Y-5.9595
X3.4745Y-3.357
X3.4745Y-3.457
X3.477Y-4.437
X3.487Y-4.562
X3.6614Y-4.4126
X3.662Y-5.217
X3.687Y-5.482
X3.712Y-3.632
X3.7508Y-5.1843
X3.772Y-4.87
X3.7945Y-5.5095
X3.807Y-4.287
X3.817Y-5.182
X3.8193Y-3.8075
X3.8906Y-5.1469
X3.907Y-4.462
X3.915Y-3.1622
X3.927Y-4.962
X3.937Y-4.572
X3.942Y-4.352
X3.942Y-4.412
X3.9845Y-5.4645
X4.0362Y-4.1437
X4.052Y-4.632
X4.0748Y-5.2457
X4.1252Y-4.8618
X4.1504Y-5.9402
X4.1713Y-3.9248
X4.172Y-3.627
X4.217Y-4.622
X4.2453Y-5.4067
X4.252Y-4.642
X4.2858Y-4.4224
X4.3063Y-4.7945
X4.324Y-3.7811
X4.3535Y-4.9969
X4.412Y-3.562
X4.432Y-4.532
X4.457Y-3.3845
X4.457Y-3.452
X4.4661Y-4.839
X4.4776Y-5.5213
X4.502Y-5.8906
X4.548Y-4.9882
X4.597Y-3.632
X4.653Y-4.681
X4.6555Y-5.4669
X4.666Y-3.817
X4.685Y-3.757
X4.687Y-4.471
X4.69Y-4.209
X4.723Y-4.321
X4.724Y-4.212
X4.737Y-3.6854
X4.765Y-4.166
T5
X3.7047Y-4.6909
T6
X3.1398Y-5.8366
T7
X3.4449Y-2.1949
X4.4291Y-2.1949
T8
X3.4449Y-2.9823
X3.4449Y-3.9665
X4.4291Y-2.9823
X4.4291Y-3.9665
T3
G00X4.6157Y-4.6307
M15
G01X4.5921Y-4.6307
M16
G05
G00X4.6157Y-4.9559
M15
G01X4.5921Y-4.9559
M16
G05
G00X4.85Y-4.6165
M15
G01X4.8264Y-4.6165
M16
G05
G00X4.85Y-4.9701
M15
G01X4.8264Y-4.9701
M16
G05
T4
G00X3.4567Y-2.7126
M15
G01X3.4331Y-2.7126
M16
G05
G00X3.4567Y-3.252
M15
G01X3.4331Y-3.252
M16
G05
G00X3.4567Y-3.6969
M15
G01X3.4331Y-3.6969
M16
G05
G00X3.4567Y-4.2362
M15
G01X3.4331Y-4.2362
M16
G05
G00X4.4173Y-2.7126
M15
G01X4.4409Y-2.7126
M16
G05
G00X4.4173Y-3.252
M15
G01X4.4409Y-3.252
M16
G05
G00X4.4173Y-3.6969
M15
G01X4.4409Y-3.6969
M16
G05
G00X4.4173Y-4.2362
M15
G01X4.4409Y-4.2362
M16
G05
T0
M30
