G04 #@! TF.GenerationSoftware,KiCad,Pcbnew,5.1.5+dfsg1-2build2*
G04 #@! TF.CreationDate,2021-08-04T12:07:34+02:00*
G04 #@! TF.ProjectId,OpenThereminV4,4f70656e-5468-4657-9265-6d696e56342e,rev?*
G04 #@! TF.SameCoordinates,Original*
G04 #@! TF.FileFunction,Soldermask,Top*
G04 #@! TF.FilePolarity,Negative*
%FSLAX46Y46*%
G04 Gerber Fmt 4.6, Leading zero omitted, Abs format (unit mm)*
G04 Created by KiCad (PCBNEW 5.1.5+dfsg1-2build2) date 2021-08-04 12:07:34*
%MOMM*%
%LPD*%
G04 APERTURE LIST*
%ADD10C,0.010000*%
%ADD11C,2.100000*%
%ADD12C,6.900000*%
%ADD13O,2.600000X1.900000*%
%ADD14C,8.400000*%
%ADD15C,2.400000*%
%ADD16C,15.400000*%
%ADD17C,6.400000*%
%ADD18R,5.400000X6.400000*%
%ADD19C,1.050000*%
%ADD20O,1.050000X1.350000*%
%ADD21O,1.800000X1.200000*%
%ADD22C,1.390600*%
G04 APERTURE END LIST*
D10*
G36*
X113595840Y-38389843D02*
G01*
X113669010Y-38416517D01*
X113690245Y-38481401D01*
X113669607Y-38601209D01*
X113645440Y-38691583D01*
X113616640Y-38782623D01*
X113579020Y-38829829D01*
X113507646Y-38847600D01*
X113377581Y-38850333D01*
X113370510Y-38850333D01*
X113243588Y-38847169D01*
X113159742Y-38839012D01*
X113139666Y-38831250D01*
X113147818Y-38782411D01*
X113168684Y-38678200D01*
X113185507Y-38598417D01*
X113231349Y-38384667D01*
X113460674Y-38384667D01*
X113595840Y-38389843D01*
G37*
X113595840Y-38389843D02*
X113669010Y-38416517D01*
X113690245Y-38481401D01*
X113669607Y-38601209D01*
X113645440Y-38691583D01*
X113616640Y-38782623D01*
X113579020Y-38829829D01*
X113507646Y-38847600D01*
X113377581Y-38850333D01*
X113370510Y-38850333D01*
X113243588Y-38847169D01*
X113159742Y-38839012D01*
X113139666Y-38831250D01*
X113147818Y-38782411D01*
X113168684Y-38678200D01*
X113185507Y-38598417D01*
X113231349Y-38384667D01*
X113460674Y-38384667D01*
X113595840Y-38389843D01*
G36*
X116008380Y-39131671D02*
G01*
X116107036Y-39157386D01*
X116187700Y-39213445D01*
X116218454Y-39242879D01*
X116280809Y-39324010D01*
X116319410Y-39426489D01*
X116334195Y-39561571D01*
X116325103Y-39740514D01*
X116292070Y-39974575D01*
X116235036Y-40275011D01*
X116212148Y-40384917D01*
X116089055Y-40967000D01*
X115863194Y-40967000D01*
X115712883Y-40957850D01*
X115642987Y-40930043D01*
X115637031Y-40914083D01*
X115645111Y-40854692D01*
X115667435Y-40729685D01*
X115700767Y-40556286D01*
X115741875Y-40351723D01*
X115750282Y-40310833D01*
X115798230Y-40057371D01*
X115828446Y-39851003D01*
X115839313Y-39704526D01*
X115834444Y-39644083D01*
X115804730Y-39568415D01*
X115748275Y-39535148D01*
X115636549Y-39527667D01*
X115634505Y-39527667D01*
X115522142Y-39536413D01*
X115430797Y-39569037D01*
X115355106Y-39635116D01*
X115289706Y-39744226D01*
X115229237Y-39905946D01*
X115168333Y-40129852D01*
X115101635Y-40425521D01*
X115083396Y-40511917D01*
X114988200Y-40967000D01*
X114762433Y-40967000D01*
X114611857Y-40957777D01*
X114541896Y-40929788D01*
X114536020Y-40914083D01*
X114544051Y-40858212D01*
X114566847Y-40732687D01*
X114601852Y-40550728D01*
X114646511Y-40325556D01*
X114698269Y-40070394D01*
X114711926Y-40003917D01*
X114888478Y-39146667D01*
X115114739Y-39146667D01*
X115246675Y-39150395D01*
X115314546Y-39166858D01*
X115338816Y-39203975D01*
X115341000Y-39234216D01*
X115344785Y-39287518D01*
X115369330Y-39294927D01*
X115434420Y-39254922D01*
X115478583Y-39223632D01*
X115596656Y-39159366D01*
X115736978Y-39130143D01*
X115858621Y-39125500D01*
X116008380Y-39131671D01*
G37*
X116008380Y-39131671D02*
X116107036Y-39157386D01*
X116187700Y-39213445D01*
X116218454Y-39242879D01*
X116280809Y-39324010D01*
X116319410Y-39426489D01*
X116334195Y-39561571D01*
X116325103Y-39740514D01*
X116292070Y-39974575D01*
X116235036Y-40275011D01*
X116212148Y-40384917D01*
X116089055Y-40967000D01*
X115863194Y-40967000D01*
X115712883Y-40957850D01*
X115642987Y-40930043D01*
X115637031Y-40914083D01*
X115645111Y-40854692D01*
X115667435Y-40729685D01*
X115700767Y-40556286D01*
X115741875Y-40351723D01*
X115750282Y-40310833D01*
X115798230Y-40057371D01*
X115828446Y-39851003D01*
X115839313Y-39704526D01*
X115834444Y-39644083D01*
X115804730Y-39568415D01*
X115748275Y-39535148D01*
X115636549Y-39527667D01*
X115634505Y-39527667D01*
X115522142Y-39536413D01*
X115430797Y-39569037D01*
X115355106Y-39635116D01*
X115289706Y-39744226D01*
X115229237Y-39905946D01*
X115168333Y-40129852D01*
X115101635Y-40425521D01*
X115083396Y-40511917D01*
X114988200Y-40967000D01*
X114762433Y-40967000D01*
X114611857Y-40957777D01*
X114541896Y-40929788D01*
X114536020Y-40914083D01*
X114544051Y-40858212D01*
X114566847Y-40732687D01*
X114601852Y-40550728D01*
X114646511Y-40325556D01*
X114698269Y-40070394D01*
X114711926Y-40003917D01*
X114888478Y-39146667D01*
X115114739Y-39146667D01*
X115246675Y-39150395D01*
X115314546Y-39166858D01*
X115338816Y-39203975D01*
X115341000Y-39234216D01*
X115344785Y-39287518D01*
X115369330Y-39294927D01*
X115434420Y-39254922D01*
X115478583Y-39223632D01*
X115596656Y-39159366D01*
X115736978Y-39130143D01*
X115858621Y-39125500D01*
X116008380Y-39131671D01*
G36*
X113479067Y-39495917D02*
G01*
X113440099Y-39677498D01*
X113390362Y-39911369D01*
X113336341Y-40166932D01*
X113286096Y-40406083D01*
X113168680Y-40967000D01*
X112942506Y-40967000D01*
X112791987Y-40957849D01*
X112721915Y-40930047D01*
X112715905Y-40914083D01*
X112724111Y-40858239D01*
X112747270Y-40732776D01*
X112782790Y-40550904D01*
X112828079Y-40325833D01*
X112880546Y-40070773D01*
X112894471Y-40003917D01*
X113073466Y-39146667D01*
X113554622Y-39146667D01*
X113479067Y-39495917D01*
G37*
X113479067Y-39495917D02*
X113440099Y-39677498D01*
X113390362Y-39911369D01*
X113336341Y-40166932D01*
X113286096Y-40406083D01*
X113168680Y-40967000D01*
X112942506Y-40967000D01*
X112791987Y-40957849D01*
X112721915Y-40930047D01*
X112715905Y-40914083D01*
X112724111Y-40858239D01*
X112747270Y-40732776D01*
X112782790Y-40550904D01*
X112828079Y-40325833D01*
X112880546Y-40070773D01*
X112894471Y-40003917D01*
X113073466Y-39146667D01*
X113554622Y-39146667D01*
X113479067Y-39495917D01*
G36*
X110275766Y-39126321D02*
G01*
X110411399Y-39182386D01*
X110507714Y-39257682D01*
X110530160Y-39294448D01*
X110555781Y-39327190D01*
X110605699Y-39319175D01*
X110698820Y-39265625D01*
X110733282Y-39243097D01*
X110903981Y-39162291D01*
X111093951Y-39122389D01*
X111277471Y-39124426D01*
X111428821Y-39169437D01*
X111488845Y-39212697D01*
X111548654Y-39289519D01*
X111585598Y-39385421D01*
X111599636Y-39512236D01*
X111590726Y-39681798D01*
X111558825Y-39905942D01*
X111503891Y-40196502D01*
X111485019Y-40288288D01*
X111343741Y-40967000D01*
X111119870Y-40967000D01*
X110995186Y-40959739D01*
X110913912Y-40941076D01*
X110896000Y-40924440D01*
X110904385Y-40869676D01*
X110927429Y-40748161D01*
X110961963Y-40575911D01*
X111004817Y-40368943D01*
X111022406Y-40285549D01*
X111075701Y-40021902D01*
X111106929Y-39828169D01*
X111115534Y-39692378D01*
X111100960Y-39602554D01*
X111062651Y-39546724D01*
X111000051Y-39512915D01*
X110986303Y-39508289D01*
X110853860Y-39506612D01*
X110726508Y-39571150D01*
X110632193Y-39686594D01*
X110622530Y-39707575D01*
X110592133Y-39800554D01*
X110550272Y-39956040D01*
X110502135Y-40153529D01*
X110452913Y-40372516D01*
X110445673Y-40406345D01*
X110326524Y-40967000D01*
X110103262Y-40967000D01*
X109966026Y-40960816D01*
X109896952Y-40939274D01*
X109880000Y-40903656D01*
X109888444Y-40839120D01*
X109911420Y-40710655D01*
X109945390Y-40537049D01*
X109985615Y-40342739D01*
X110041125Y-40069730D01*
X110075284Y-39867013D01*
X110088229Y-39722987D01*
X110080095Y-39626050D01*
X110051019Y-39564600D01*
X110001136Y-39527034D01*
X109995216Y-39524239D01*
X109859627Y-39504738D01*
X109726575Y-39556729D01*
X109619985Y-39669782D01*
X109606557Y-39693666D01*
X109573272Y-39782299D01*
X109529142Y-39933998D01*
X109479530Y-40128729D01*
X109429798Y-40346457D01*
X109421911Y-40383401D01*
X109303097Y-40945833D01*
X109058825Y-40958635D01*
X108922178Y-40963109D01*
X108852298Y-40954738D01*
X108831647Y-40928489D01*
X108837582Y-40895135D01*
X108853177Y-40830177D01*
X108882180Y-40697217D01*
X108921416Y-40511280D01*
X108967708Y-40287388D01*
X109010325Y-40078000D01*
X109060206Y-39831943D01*
X109105616Y-39609389D01*
X109143368Y-39425840D01*
X109170277Y-39296797D01*
X109182158Y-39241917D01*
X109204320Y-39187086D01*
X109252886Y-39158465D01*
X109350215Y-39147832D01*
X109441243Y-39146667D01*
X109575329Y-39149455D01*
X109642947Y-39162588D01*
X109662238Y-39193213D01*
X109656067Y-39231333D01*
X109653693Y-39298837D01*
X109672296Y-39316000D01*
X109710097Y-39284929D01*
X109710666Y-39278490D01*
X109747643Y-39231849D01*
X109840290Y-39180300D01*
X109961185Y-39135180D01*
X110082906Y-39107828D01*
X110131916Y-39104333D01*
X110275766Y-39126321D01*
G37*
X110275766Y-39126321D02*
X110411399Y-39182386D01*
X110507714Y-39257682D01*
X110530160Y-39294448D01*
X110555781Y-39327190D01*
X110605699Y-39319175D01*
X110698820Y-39265625D01*
X110733282Y-39243097D01*
X110903981Y-39162291D01*
X111093951Y-39122389D01*
X111277471Y-39124426D01*
X111428821Y-39169437D01*
X111488845Y-39212697D01*
X111548654Y-39289519D01*
X111585598Y-39385421D01*
X111599636Y-39512236D01*
X111590726Y-39681798D01*
X111558825Y-39905942D01*
X111503891Y-40196502D01*
X111485019Y-40288288D01*
X111343741Y-40967000D01*
X111119870Y-40967000D01*
X110995186Y-40959739D01*
X110913912Y-40941076D01*
X110896000Y-40924440D01*
X110904385Y-40869676D01*
X110927429Y-40748161D01*
X110961963Y-40575911D01*
X111004817Y-40368943D01*
X111022406Y-40285549D01*
X111075701Y-40021902D01*
X111106929Y-39828169D01*
X111115534Y-39692378D01*
X111100960Y-39602554D01*
X111062651Y-39546724D01*
X111000051Y-39512915D01*
X110986303Y-39508289D01*
X110853860Y-39506612D01*
X110726508Y-39571150D01*
X110632193Y-39686594D01*
X110622530Y-39707575D01*
X110592133Y-39800554D01*
X110550272Y-39956040D01*
X110502135Y-40153529D01*
X110452913Y-40372516D01*
X110445673Y-40406345D01*
X110326524Y-40967000D01*
X110103262Y-40967000D01*
X109966026Y-40960816D01*
X109896952Y-40939274D01*
X109880000Y-40903656D01*
X109888444Y-40839120D01*
X109911420Y-40710655D01*
X109945390Y-40537049D01*
X109985615Y-40342739D01*
X110041125Y-40069730D01*
X110075284Y-39867013D01*
X110088229Y-39722987D01*
X110080095Y-39626050D01*
X110051019Y-39564600D01*
X110001136Y-39527034D01*
X109995216Y-39524239D01*
X109859627Y-39504738D01*
X109726575Y-39556729D01*
X109619985Y-39669782D01*
X109606557Y-39693666D01*
X109573272Y-39782299D01*
X109529142Y-39933998D01*
X109479530Y-40128729D01*
X109429798Y-40346457D01*
X109421911Y-40383401D01*
X109303097Y-40945833D01*
X109058825Y-40958635D01*
X108922178Y-40963109D01*
X108852298Y-40954738D01*
X108831647Y-40928489D01*
X108837582Y-40895135D01*
X108853177Y-40830177D01*
X108882180Y-40697217D01*
X108921416Y-40511280D01*
X108967708Y-40287388D01*
X109010325Y-40078000D01*
X109060206Y-39831943D01*
X109105616Y-39609389D01*
X109143368Y-39425840D01*
X109170277Y-39296797D01*
X109182158Y-39241917D01*
X109204320Y-39187086D01*
X109252886Y-39158465D01*
X109350215Y-39147832D01*
X109441243Y-39146667D01*
X109575329Y-39149455D01*
X109642947Y-39162588D01*
X109662238Y-39193213D01*
X109656067Y-39231333D01*
X109653693Y-39298837D01*
X109672296Y-39316000D01*
X109710097Y-39284929D01*
X109710666Y-39278490D01*
X109747643Y-39231849D01*
X109840290Y-39180300D01*
X109961185Y-39135180D01*
X110082906Y-39107828D01*
X110131916Y-39104333D01*
X110275766Y-39126321D01*
G36*
X105133226Y-39112739D02*
G01*
X105148670Y-39151177D01*
X105141073Y-39239472D01*
X105124995Y-39333768D01*
X105097550Y-39466279D01*
X105063891Y-39539908D01*
X105004477Y-39579384D01*
X104909039Y-39607110D01*
X104723988Y-39691378D01*
X104566442Y-39831859D01*
X104468827Y-39994045D01*
X104442078Y-40084427D01*
X104406419Y-40230807D01*
X104368365Y-40405934D01*
X104357513Y-40459712D01*
X104315723Y-40671905D01*
X104283711Y-40815070D01*
X104252337Y-40902705D01*
X104212461Y-40948307D01*
X104154942Y-40965375D01*
X104070638Y-40967406D01*
X104013980Y-40967000D01*
X103887500Y-40961721D01*
X103804273Y-40948118D01*
X103784708Y-40935250D01*
X103793295Y-40886070D01*
X103816881Y-40766779D01*
X103852873Y-40590086D01*
X103898673Y-40368697D01*
X103951687Y-40115322D01*
X103968463Y-40035667D01*
X104151509Y-39167833D01*
X104384035Y-39155348D01*
X104616561Y-39142862D01*
X104596897Y-39282348D01*
X104577233Y-39421833D01*
X104686994Y-39304985D01*
X104843333Y-39180845D01*
X105015327Y-39112622D01*
X105091880Y-39104333D01*
X105133226Y-39112739D01*
G37*
X105133226Y-39112739D02*
X105148670Y-39151177D01*
X105141073Y-39239472D01*
X105124995Y-39333768D01*
X105097550Y-39466279D01*
X105063891Y-39539908D01*
X105004477Y-39579384D01*
X104909039Y-39607110D01*
X104723988Y-39691378D01*
X104566442Y-39831859D01*
X104468827Y-39994045D01*
X104442078Y-40084427D01*
X104406419Y-40230807D01*
X104368365Y-40405934D01*
X104357513Y-40459712D01*
X104315723Y-40671905D01*
X104283711Y-40815070D01*
X104252337Y-40902705D01*
X104212461Y-40948307D01*
X104154942Y-40965375D01*
X104070638Y-40967406D01*
X104013980Y-40967000D01*
X103887500Y-40961721D01*
X103804273Y-40948118D01*
X103784708Y-40935250D01*
X103793295Y-40886070D01*
X103816881Y-40766779D01*
X103852873Y-40590086D01*
X103898673Y-40368697D01*
X103951687Y-40115322D01*
X103968463Y-40035667D01*
X104151509Y-39167833D01*
X104384035Y-39155348D01*
X104616561Y-39142862D01*
X104596897Y-39282348D01*
X104577233Y-39421833D01*
X104686994Y-39304985D01*
X104843333Y-39180845D01*
X105015327Y-39112622D01*
X105091880Y-39104333D01*
X105133226Y-39112739D01*
G36*
X98939120Y-38389945D02*
G01*
X99022259Y-38403545D01*
X99041750Y-38416417D01*
X99032735Y-38469355D01*
X99009354Y-38584547D01*
X98975805Y-38741636D01*
X98957083Y-38827022D01*
X98911028Y-39039069D01*
X98884922Y-39178856D01*
X98879985Y-39256695D01*
X98897439Y-39282896D01*
X98938507Y-39267769D01*
X99003880Y-39222017D01*
X99156931Y-39149328D01*
X99341306Y-39119354D01*
X99526637Y-39131956D01*
X99682555Y-39186995D01*
X99734815Y-39225366D01*
X99801269Y-39303022D01*
X99843502Y-39396441D01*
X99861679Y-39517879D01*
X99855963Y-39679592D01*
X99826520Y-39893834D01*
X99773513Y-40172860D01*
X99749090Y-40289667D01*
X99609641Y-40945833D01*
X99364930Y-40958635D01*
X99228043Y-40963086D01*
X99157845Y-40954664D01*
X99136725Y-40928352D01*
X99142127Y-40895135D01*
X99158251Y-40827276D01*
X99187336Y-40693879D01*
X99225659Y-40512412D01*
X99269496Y-40300344D01*
X99283243Y-40232990D01*
X99402450Y-39647146D01*
X99299318Y-39563635D01*
X99167636Y-39504885D01*
X99024029Y-39527484D01*
X98884644Y-39622167D01*
X98839771Y-39666807D01*
X98804250Y-39714579D01*
X98773490Y-39779288D01*
X98742899Y-39874743D01*
X98707885Y-40014748D01*
X98663858Y-40213110D01*
X98620425Y-40416667D01*
X98508176Y-40945833D01*
X98262263Y-40958683D01*
X98125157Y-40963977D01*
X98054442Y-40956821D01*
X98032022Y-40930302D01*
X98039803Y-40877505D01*
X98040669Y-40874016D01*
X98055638Y-40807699D01*
X98085440Y-40670450D01*
X98127528Y-40474198D01*
X98179351Y-40230874D01*
X98238361Y-39952410D01*
X98301181Y-39654667D01*
X98364586Y-39354721D01*
X98423239Y-39079533D01*
X98474626Y-38840723D01*
X98516231Y-38649912D01*
X98545538Y-38518721D01*
X98560033Y-38458771D01*
X98560039Y-38458750D01*
X98592333Y-38413916D01*
X98667312Y-38391206D01*
X98805248Y-38384675D01*
X98812686Y-38384667D01*
X98939120Y-38389945D01*
G37*
X98939120Y-38389945D02*
X99022259Y-38403545D01*
X99041750Y-38416417D01*
X99032735Y-38469355D01*
X99009354Y-38584547D01*
X98975805Y-38741636D01*
X98957083Y-38827022D01*
X98911028Y-39039069D01*
X98884922Y-39178856D01*
X98879985Y-39256695D01*
X98897439Y-39282896D01*
X98938507Y-39267769D01*
X99003880Y-39222017D01*
X99156931Y-39149328D01*
X99341306Y-39119354D01*
X99526637Y-39131956D01*
X99682555Y-39186995D01*
X99734815Y-39225366D01*
X99801269Y-39303022D01*
X99843502Y-39396441D01*
X99861679Y-39517879D01*
X99855963Y-39679592D01*
X99826520Y-39893834D01*
X99773513Y-40172860D01*
X99749090Y-40289667D01*
X99609641Y-40945833D01*
X99364930Y-40958635D01*
X99228043Y-40963086D01*
X99157845Y-40954664D01*
X99136725Y-40928352D01*
X99142127Y-40895135D01*
X99158251Y-40827276D01*
X99187336Y-40693879D01*
X99225659Y-40512412D01*
X99269496Y-40300344D01*
X99283243Y-40232990D01*
X99402450Y-39647146D01*
X99299318Y-39563635D01*
X99167636Y-39504885D01*
X99024029Y-39527484D01*
X98884644Y-39622167D01*
X98839771Y-39666807D01*
X98804250Y-39714579D01*
X98773490Y-39779288D01*
X98742899Y-39874743D01*
X98707885Y-40014748D01*
X98663858Y-40213110D01*
X98620425Y-40416667D01*
X98508176Y-40945833D01*
X98262263Y-40958683D01*
X98125157Y-40963977D01*
X98054442Y-40956821D01*
X98032022Y-40930302D01*
X98039803Y-40877505D01*
X98040669Y-40874016D01*
X98055638Y-40807699D01*
X98085440Y-40670450D01*
X98127528Y-40474198D01*
X98179351Y-40230874D01*
X98238361Y-39952410D01*
X98301181Y-39654667D01*
X98364586Y-39354721D01*
X98423239Y-39079533D01*
X98474626Y-38840723D01*
X98516231Y-38649912D01*
X98545538Y-38518721D01*
X98560033Y-38458771D01*
X98560039Y-38458750D01*
X98592333Y-38413916D01*
X98667312Y-38391206D01*
X98805248Y-38384675D01*
X98812686Y-38384667D01*
X98939120Y-38389945D01*
G36*
X96950024Y-38555084D02*
G01*
X97121186Y-38560361D01*
X97236728Y-38572281D01*
X97306331Y-38593458D01*
X97339674Y-38626508D01*
X97346437Y-38674044D01*
X97336299Y-38738681D01*
X97322875Y-38802708D01*
X97296416Y-38935000D01*
X96942681Y-38935000D01*
X96769143Y-38936562D01*
X96662284Y-38944283D01*
X96604129Y-38962712D01*
X96576707Y-38996401D01*
X96566465Y-39030250D01*
X96548660Y-39110060D01*
X96518130Y-39251483D01*
X96477864Y-39440271D01*
X96430855Y-39662176D01*
X96380091Y-39902953D01*
X96328565Y-40148352D01*
X96279266Y-40384126D01*
X96235186Y-40596029D01*
X96199315Y-40769812D01*
X96174644Y-40891227D01*
X96164164Y-40946029D01*
X96164000Y-40947560D01*
X96125506Y-40957765D01*
X96025362Y-40964804D01*
X95907147Y-40967000D01*
X95765564Y-40964123D01*
X95691532Y-40951902D01*
X95668026Y-40924950D01*
X95672977Y-40892917D01*
X95687893Y-40831726D01*
X95716323Y-40704465D01*
X95755225Y-40525578D01*
X95801558Y-40309512D01*
X95852282Y-40070713D01*
X95904356Y-39823628D01*
X95954738Y-39582701D01*
X96000387Y-39362380D01*
X96038262Y-39177110D01*
X96065323Y-39041338D01*
X96078528Y-38969510D01*
X96079333Y-38962555D01*
X96040345Y-38949758D01*
X95936738Y-38940122D01*
X95788544Y-38935276D01*
X95740666Y-38935000D01*
X95566033Y-38933375D01*
X95461617Y-38920829D01*
X95412971Y-38885853D01*
X95405648Y-38816937D01*
X95425200Y-38702573D01*
X95428458Y-38686292D01*
X95454916Y-38554000D01*
X96402125Y-38554000D01*
X96713564Y-38553835D01*
X96950024Y-38555084D01*
G37*
X96950024Y-38555084D02*
X97121186Y-38560361D01*
X97236728Y-38572281D01*
X97306331Y-38593458D01*
X97339674Y-38626508D01*
X97346437Y-38674044D01*
X97336299Y-38738681D01*
X97322875Y-38802708D01*
X97296416Y-38935000D01*
X96942681Y-38935000D01*
X96769143Y-38936562D01*
X96662284Y-38944283D01*
X96604129Y-38962712D01*
X96576707Y-38996401D01*
X96566465Y-39030250D01*
X96548660Y-39110060D01*
X96518130Y-39251483D01*
X96477864Y-39440271D01*
X96430855Y-39662176D01*
X96380091Y-39902953D01*
X96328565Y-40148352D01*
X96279266Y-40384126D01*
X96235186Y-40596029D01*
X96199315Y-40769812D01*
X96174644Y-40891227D01*
X96164164Y-40946029D01*
X96164000Y-40947560D01*
X96125506Y-40957765D01*
X96025362Y-40964804D01*
X95907147Y-40967000D01*
X95765564Y-40964123D01*
X95691532Y-40951902D01*
X95668026Y-40924950D01*
X95672977Y-40892917D01*
X95687893Y-40831726D01*
X95716323Y-40704465D01*
X95755225Y-40525578D01*
X95801558Y-40309512D01*
X95852282Y-40070713D01*
X95904356Y-39823628D01*
X95954738Y-39582701D01*
X96000387Y-39362380D01*
X96038262Y-39177110D01*
X96065323Y-39041338D01*
X96078528Y-38969510D01*
X96079333Y-38962555D01*
X96040345Y-38949758D01*
X95936738Y-38940122D01*
X95788544Y-38935276D01*
X95740666Y-38935000D01*
X95566033Y-38933375D01*
X95461617Y-38920829D01*
X95412971Y-38885853D01*
X95405648Y-38816937D01*
X95425200Y-38702573D01*
X95428458Y-38686292D01*
X95454916Y-38554000D01*
X96402125Y-38554000D01*
X96713564Y-38553835D01*
X96950024Y-38555084D01*
G36*
X94068520Y-39126850D02*
G01*
X94175180Y-39168271D01*
X94272842Y-39234587D01*
X94339540Y-39323193D01*
X94376229Y-39444602D01*
X94383865Y-39609323D01*
X94363402Y-39827868D01*
X94315796Y-40110748D01*
X94277969Y-40299576D01*
X94226649Y-40548615D01*
X94188183Y-40726968D01*
X94155884Y-40846332D01*
X94123062Y-40918399D01*
X94083032Y-40954867D01*
X94029104Y-40967430D01*
X93954592Y-40967784D01*
X93896313Y-40967000D01*
X93769658Y-40964590D01*
X93686128Y-40958382D01*
X93666333Y-40952523D01*
X93674641Y-40908231D01*
X93697509Y-40796041D01*
X93731849Y-40630862D01*
X93774574Y-40427602D01*
X93795523Y-40328583D01*
X93851603Y-40051939D01*
X93884872Y-39846801D01*
X93893753Y-39702717D01*
X93876666Y-39609231D01*
X93832036Y-39555890D01*
X93758282Y-39532239D01*
X93674620Y-39527667D01*
X93546093Y-39542943D01*
X93443573Y-39595432D01*
X93360597Y-39695122D01*
X93290703Y-39852003D01*
X93227430Y-40076063D01*
X93181191Y-40290379D01*
X93142803Y-40477916D01*
X93104912Y-40653835D01*
X93074432Y-40786247D01*
X93068925Y-40808250D01*
X93028069Y-40967000D01*
X92796868Y-40967000D01*
X92670296Y-40961754D01*
X92587191Y-40948227D01*
X92567714Y-40935250D01*
X92576612Y-40886046D01*
X92600306Y-40766698D01*
X92636206Y-40589922D01*
X92681724Y-40368438D01*
X92734273Y-40114962D01*
X92750795Y-40035667D01*
X92931829Y-39167833D01*
X93415027Y-39142361D01*
X93386543Y-39260930D01*
X93358059Y-39379500D01*
X93459279Y-39287070D01*
X93648428Y-39163683D01*
X93858632Y-39109095D01*
X94068520Y-39126850D01*
G37*
X94068520Y-39126850D02*
X94175180Y-39168271D01*
X94272842Y-39234587D01*
X94339540Y-39323193D01*
X94376229Y-39444602D01*
X94383865Y-39609323D01*
X94363402Y-39827868D01*
X94315796Y-40110748D01*
X94277969Y-40299576D01*
X94226649Y-40548615D01*
X94188183Y-40726968D01*
X94155884Y-40846332D01*
X94123062Y-40918399D01*
X94083032Y-40954867D01*
X94029104Y-40967430D01*
X93954592Y-40967784D01*
X93896313Y-40967000D01*
X93769658Y-40964590D01*
X93686128Y-40958382D01*
X93666333Y-40952523D01*
X93674641Y-40908231D01*
X93697509Y-40796041D01*
X93731849Y-40630862D01*
X93774574Y-40427602D01*
X93795523Y-40328583D01*
X93851603Y-40051939D01*
X93884872Y-39846801D01*
X93893753Y-39702717D01*
X93876666Y-39609231D01*
X93832036Y-39555890D01*
X93758282Y-39532239D01*
X93674620Y-39527667D01*
X93546093Y-39542943D01*
X93443573Y-39595432D01*
X93360597Y-39695122D01*
X93290703Y-39852003D01*
X93227430Y-40076063D01*
X93181191Y-40290379D01*
X93142803Y-40477916D01*
X93104912Y-40653835D01*
X93074432Y-40786247D01*
X93068925Y-40808250D01*
X93028069Y-40967000D01*
X92796868Y-40967000D01*
X92670296Y-40961754D01*
X92587191Y-40948227D01*
X92567714Y-40935250D01*
X92576612Y-40886046D01*
X92600306Y-40766698D01*
X92636206Y-40589922D01*
X92681724Y-40368438D01*
X92734273Y-40114962D01*
X92750795Y-40035667D01*
X92931829Y-39167833D01*
X93415027Y-39142361D01*
X93386543Y-39260930D01*
X93358059Y-39379500D01*
X93459279Y-39287070D01*
X93648428Y-39163683D01*
X93858632Y-39109095D01*
X94068520Y-39126850D01*
G36*
X107186604Y-39119575D02*
G01*
X107420499Y-39175734D01*
X107590333Y-39283775D01*
X107699142Y-39447586D01*
X107749964Y-39671053D01*
X107753540Y-39845167D01*
X107742166Y-40141500D01*
X107149500Y-40162667D01*
X106556833Y-40183833D01*
X106563378Y-40324204D01*
X106604275Y-40479456D01*
X106697185Y-40583925D01*
X106822354Y-40630117D01*
X106960027Y-40610537D01*
X107086000Y-40522500D01*
X107158472Y-40460167D01*
X107244669Y-40428141D01*
X107374800Y-40417213D01*
X107433133Y-40416667D01*
X107680840Y-40416667D01*
X107620033Y-40533083D01*
X107518625Y-40675398D01*
X107375919Y-40815764D01*
X107228280Y-40918516D01*
X107225534Y-40919939D01*
X107131972Y-40950640D01*
X106990886Y-40978446D01*
X106886868Y-40991684D01*
X106722189Y-40999442D01*
X106595691Y-40979221D01*
X106463398Y-40923500D01*
X106451000Y-40917155D01*
X106261806Y-40779820D01*
X106140403Y-40596159D01*
X106084924Y-40362294D01*
X106084958Y-40157899D01*
X106142510Y-39843503D01*
X106151008Y-39824000D01*
X106618159Y-39824000D01*
X106979079Y-39824000D01*
X107155515Y-39822047D01*
X107263489Y-39813941D01*
X107319160Y-39796315D01*
X107338688Y-39765798D01*
X107340000Y-39748753D01*
X107302320Y-39614898D01*
X107202431Y-39520914D01*
X107060059Y-39485333D01*
X107059649Y-39485333D01*
X106881875Y-39510043D01*
X106756070Y-39591429D01*
X106683184Y-39698255D01*
X106618159Y-39824000D01*
X106151008Y-39824000D01*
X106258856Y-39576488D01*
X106426815Y-39363623D01*
X106639208Y-39211673D01*
X106888853Y-39127408D01*
X107168571Y-39117595D01*
X107186604Y-39119575D01*
G37*
X107186604Y-39119575D02*
X107420499Y-39175734D01*
X107590333Y-39283775D01*
X107699142Y-39447586D01*
X107749964Y-39671053D01*
X107753540Y-39845167D01*
X107742166Y-40141500D01*
X107149500Y-40162667D01*
X106556833Y-40183833D01*
X106563378Y-40324204D01*
X106604275Y-40479456D01*
X106697185Y-40583925D01*
X106822354Y-40630117D01*
X106960027Y-40610537D01*
X107086000Y-40522500D01*
X107158472Y-40460167D01*
X107244669Y-40428141D01*
X107374800Y-40417213D01*
X107433133Y-40416667D01*
X107680840Y-40416667D01*
X107620033Y-40533083D01*
X107518625Y-40675398D01*
X107375919Y-40815764D01*
X107228280Y-40918516D01*
X107225534Y-40919939D01*
X107131972Y-40950640D01*
X106990886Y-40978446D01*
X106886868Y-40991684D01*
X106722189Y-40999442D01*
X106595691Y-40979221D01*
X106463398Y-40923500D01*
X106451000Y-40917155D01*
X106261806Y-40779820D01*
X106140403Y-40596159D01*
X106084924Y-40362294D01*
X106084958Y-40157899D01*
X106142510Y-39843503D01*
X106151008Y-39824000D01*
X106618159Y-39824000D01*
X106979079Y-39824000D01*
X107155515Y-39822047D01*
X107263489Y-39813941D01*
X107319160Y-39796315D01*
X107338688Y-39765798D01*
X107340000Y-39748753D01*
X107302320Y-39614898D01*
X107202431Y-39520914D01*
X107060059Y-39485333D01*
X107059649Y-39485333D01*
X106881875Y-39510043D01*
X106756070Y-39591429D01*
X106683184Y-39698255D01*
X106618159Y-39824000D01*
X106151008Y-39824000D01*
X106258856Y-39576488D01*
X106426815Y-39363623D01*
X106639208Y-39211673D01*
X106888853Y-39127408D01*
X107168571Y-39117595D01*
X107186604Y-39119575D01*
G36*
X102274029Y-39149445D02*
G01*
X102387000Y-39196838D01*
X102564298Y-39326129D01*
X102674892Y-39500777D01*
X102722829Y-39728111D01*
X102725600Y-39809954D01*
X102725137Y-39945042D01*
X102715290Y-40040366D01*
X102683517Y-40102844D01*
X102617275Y-40139395D01*
X102504021Y-40156936D01*
X102331211Y-40162388D01*
X102086303Y-40162667D01*
X101498000Y-40162667D01*
X101498000Y-40271283D01*
X101522303Y-40407811D01*
X101582863Y-40533398D01*
X101641920Y-40595935D01*
X101758281Y-40627753D01*
X101900072Y-40602665D01*
X102035827Y-40526467D01*
X102040613Y-40522500D01*
X102149502Y-40451794D01*
X102277178Y-40421017D01*
X102382527Y-40416667D01*
X102521174Y-40426427D01*
X102588398Y-40460273D01*
X102584946Y-40525057D01*
X102511560Y-40627629D01*
X102416372Y-40728189D01*
X102198459Y-40891585D01*
X101950640Y-40984598D01*
X101690295Y-41002972D01*
X101476833Y-40958376D01*
X101356044Y-40897276D01*
X101238521Y-40810368D01*
X101234395Y-40806569D01*
X101112275Y-40638306D01*
X101045702Y-40426158D01*
X101031592Y-40187318D01*
X101066858Y-39938981D01*
X101118422Y-39786841D01*
X101606569Y-39786841D01*
X101634244Y-39809021D01*
X101709870Y-39820117D01*
X101848821Y-39823790D01*
X101922661Y-39824000D01*
X102260000Y-39824000D01*
X102260000Y-39705467D01*
X102237262Y-39582260D01*
X102161530Y-39512117D01*
X102021527Y-39486049D01*
X101983745Y-39485333D01*
X101807000Y-39522725D01*
X101674694Y-39630587D01*
X101611470Y-39749917D01*
X101606569Y-39786841D01*
X101118422Y-39786841D01*
X101148417Y-39698342D01*
X101273184Y-39482594D01*
X101438074Y-39308932D01*
X101512509Y-39256374D01*
X101763835Y-39144300D01*
X102022906Y-39108301D01*
X102274029Y-39149445D01*
G37*
X102274029Y-39149445D02*
X102387000Y-39196838D01*
X102564298Y-39326129D01*
X102674892Y-39500777D01*
X102722829Y-39728111D01*
X102725600Y-39809954D01*
X102725137Y-39945042D01*
X102715290Y-40040366D01*
X102683517Y-40102844D01*
X102617275Y-40139395D01*
X102504021Y-40156936D01*
X102331211Y-40162388D01*
X102086303Y-40162667D01*
X101498000Y-40162667D01*
X101498000Y-40271283D01*
X101522303Y-40407811D01*
X101582863Y-40533398D01*
X101641920Y-40595935D01*
X101758281Y-40627753D01*
X101900072Y-40602665D01*
X102035827Y-40526467D01*
X102040613Y-40522500D01*
X102149502Y-40451794D01*
X102277178Y-40421017D01*
X102382527Y-40416667D01*
X102521174Y-40426427D01*
X102588398Y-40460273D01*
X102584946Y-40525057D01*
X102511560Y-40627629D01*
X102416372Y-40728189D01*
X102198459Y-40891585D01*
X101950640Y-40984598D01*
X101690295Y-41002972D01*
X101476833Y-40958376D01*
X101356044Y-40897276D01*
X101238521Y-40810368D01*
X101234395Y-40806569D01*
X101112275Y-40638306D01*
X101045702Y-40426158D01*
X101031592Y-40187318D01*
X101066858Y-39938981D01*
X101118422Y-39786841D01*
X101606569Y-39786841D01*
X101634244Y-39809021D01*
X101709870Y-39820117D01*
X101848821Y-39823790D01*
X101922661Y-39824000D01*
X102260000Y-39824000D01*
X102260000Y-39705467D01*
X102237262Y-39582260D01*
X102161530Y-39512117D01*
X102021527Y-39486049D01*
X101983745Y-39485333D01*
X101807000Y-39522725D01*
X101674694Y-39630587D01*
X101611470Y-39749917D01*
X101606569Y-39786841D01*
X101118422Y-39786841D01*
X101148417Y-39698342D01*
X101273184Y-39482594D01*
X101438074Y-39308932D01*
X101512509Y-39256374D01*
X101763835Y-39144300D01*
X102022906Y-39108301D01*
X102274029Y-39149445D01*
G36*
X90910189Y-39118112D02*
G01*
X91156438Y-39192765D01*
X91170280Y-39199583D01*
X91346419Y-39326725D01*
X91456567Y-39500492D01*
X91504471Y-39727668D01*
X91507267Y-39809954D01*
X91506804Y-39945042D01*
X91496957Y-40040366D01*
X91465184Y-40102844D01*
X91398942Y-40139395D01*
X91285687Y-40156936D01*
X91112878Y-40162388D01*
X90867969Y-40162667D01*
X90279666Y-40162667D01*
X90279666Y-40271283D01*
X90303970Y-40407811D01*
X90364530Y-40533398D01*
X90423587Y-40595935D01*
X90539948Y-40627753D01*
X90681738Y-40602665D01*
X90817493Y-40526467D01*
X90822279Y-40522500D01*
X90931169Y-40451794D01*
X91058845Y-40421017D01*
X91164194Y-40416667D01*
X91302840Y-40426427D01*
X91370065Y-40460273D01*
X91366612Y-40525057D01*
X91293226Y-40627629D01*
X91198039Y-40728189D01*
X90975263Y-40894287D01*
X90720466Y-40986720D01*
X90449076Y-41001571D01*
X90263550Y-40965543D01*
X90073710Y-40866934D01*
X89931548Y-40704354D01*
X89843077Y-40487536D01*
X89814236Y-40238110D01*
X89835553Y-39968545D01*
X89890535Y-39786841D01*
X90388235Y-39786841D01*
X90415911Y-39809021D01*
X90491537Y-39820117D01*
X90630488Y-39823790D01*
X90704328Y-39824000D01*
X91041666Y-39824000D01*
X91041666Y-39705467D01*
X91018928Y-39582260D01*
X90943197Y-39512117D01*
X90803194Y-39486049D01*
X90765412Y-39485333D01*
X90588666Y-39522725D01*
X90456360Y-39630587D01*
X90393136Y-39749917D01*
X90388235Y-39786841D01*
X89890535Y-39786841D01*
X89906773Y-39733181D01*
X90025566Y-39513476D01*
X90195077Y-39320572D01*
X90411214Y-39187032D01*
X90655683Y-39117874D01*
X90910189Y-39118112D01*
G37*
X90910189Y-39118112D02*
X91156438Y-39192765D01*
X91170280Y-39199583D01*
X91346419Y-39326725D01*
X91456567Y-39500492D01*
X91504471Y-39727668D01*
X91507267Y-39809954D01*
X91506804Y-39945042D01*
X91496957Y-40040366D01*
X91465184Y-40102844D01*
X91398942Y-40139395D01*
X91285687Y-40156936D01*
X91112878Y-40162388D01*
X90867969Y-40162667D01*
X90279666Y-40162667D01*
X90279666Y-40271283D01*
X90303970Y-40407811D01*
X90364530Y-40533398D01*
X90423587Y-40595935D01*
X90539948Y-40627753D01*
X90681738Y-40602665D01*
X90817493Y-40526467D01*
X90822279Y-40522500D01*
X90931169Y-40451794D01*
X91058845Y-40421017D01*
X91164194Y-40416667D01*
X91302840Y-40426427D01*
X91370065Y-40460273D01*
X91366612Y-40525057D01*
X91293226Y-40627629D01*
X91198039Y-40728189D01*
X90975263Y-40894287D01*
X90720466Y-40986720D01*
X90449076Y-41001571D01*
X90263550Y-40965543D01*
X90073710Y-40866934D01*
X89931548Y-40704354D01*
X89843077Y-40487536D01*
X89814236Y-40238110D01*
X89835553Y-39968545D01*
X89890535Y-39786841D01*
X90388235Y-39786841D01*
X90415911Y-39809021D01*
X90491537Y-39820117D01*
X90630488Y-39823790D01*
X90704328Y-39824000D01*
X91041666Y-39824000D01*
X91041666Y-39705467D01*
X91018928Y-39582260D01*
X90943197Y-39512117D01*
X90803194Y-39486049D01*
X90765412Y-39485333D01*
X90588666Y-39522725D01*
X90456360Y-39630587D01*
X90393136Y-39749917D01*
X90388235Y-39786841D01*
X89890535Y-39786841D01*
X89906773Y-39733181D01*
X90025566Y-39513476D01*
X90195077Y-39320572D01*
X90411214Y-39187032D01*
X90655683Y-39117874D01*
X90910189Y-39118112D01*
G36*
X84733044Y-38515849D02*
G01*
X84819571Y-38520446D01*
X85005774Y-38535606D01*
X85136404Y-38560571D01*
X85240539Y-38603410D01*
X85335060Y-38663507D01*
X85479996Y-38784229D01*
X85580862Y-38918885D01*
X85644390Y-39084847D01*
X85677313Y-39299489D01*
X85686376Y-39570000D01*
X85683040Y-39791121D01*
X85670911Y-39951614D01*
X85646590Y-40075345D01*
X85606678Y-40186179D01*
X85594899Y-40212437D01*
X85455695Y-40444141D01*
X85270484Y-40653472D01*
X85062614Y-40816469D01*
X84946315Y-40878018D01*
X84737459Y-40944473D01*
X84500937Y-40983704D01*
X84272667Y-40991752D01*
X84108973Y-40970364D01*
X83873880Y-40869753D01*
X83674668Y-40705423D01*
X83543211Y-40514710D01*
X83488519Y-40385325D01*
X83458578Y-40255667D01*
X83447664Y-40093198D01*
X83447715Y-40039551D01*
X83948641Y-40039551D01*
X83991595Y-40269175D01*
X84094026Y-40448530D01*
X84129247Y-40484875D01*
X84268216Y-40561260D01*
X84447798Y-40587143D01*
X84639897Y-40561490D01*
X84773806Y-40508601D01*
X84900216Y-40406006D01*
X85023540Y-40243394D01*
X85048313Y-40201684D01*
X85109447Y-40087335D01*
X85147758Y-39988969D01*
X85168517Y-39880609D01*
X85177001Y-39736276D01*
X85178500Y-39560477D01*
X85177147Y-39368894D01*
X85170059Y-39241468D01*
X85152687Y-39157701D01*
X85120484Y-39097089D01*
X85068904Y-39039135D01*
X85061121Y-39031310D01*
X84973633Y-38958728D01*
X84878009Y-38923708D01*
X84738310Y-38913902D01*
X84719159Y-38913833D01*
X84490358Y-38952037D01*
X84298282Y-39065650D01*
X84144243Y-39253177D01*
X84029559Y-39513118D01*
X83967454Y-39769781D01*
X83948641Y-40039551D01*
X83447715Y-40039551D01*
X83447781Y-39972167D01*
X83487603Y-39597285D01*
X83593688Y-39267860D01*
X83763327Y-38988683D01*
X83993806Y-38764546D01*
X84204018Y-38635909D01*
X84350096Y-38567628D01*
X84464465Y-38529077D01*
X84580867Y-38513927D01*
X84733044Y-38515849D01*
G37*
X84733044Y-38515849D02*
X84819571Y-38520446D01*
X85005774Y-38535606D01*
X85136404Y-38560571D01*
X85240539Y-38603410D01*
X85335060Y-38663507D01*
X85479996Y-38784229D01*
X85580862Y-38918885D01*
X85644390Y-39084847D01*
X85677313Y-39299489D01*
X85686376Y-39570000D01*
X85683040Y-39791121D01*
X85670911Y-39951614D01*
X85646590Y-40075345D01*
X85606678Y-40186179D01*
X85594899Y-40212437D01*
X85455695Y-40444141D01*
X85270484Y-40653472D01*
X85062614Y-40816469D01*
X84946315Y-40878018D01*
X84737459Y-40944473D01*
X84500937Y-40983704D01*
X84272667Y-40991752D01*
X84108973Y-40970364D01*
X83873880Y-40869753D01*
X83674668Y-40705423D01*
X83543211Y-40514710D01*
X83488519Y-40385325D01*
X83458578Y-40255667D01*
X83447664Y-40093198D01*
X83447715Y-40039551D01*
X83948641Y-40039551D01*
X83991595Y-40269175D01*
X84094026Y-40448530D01*
X84129247Y-40484875D01*
X84268216Y-40561260D01*
X84447798Y-40587143D01*
X84639897Y-40561490D01*
X84773806Y-40508601D01*
X84900216Y-40406006D01*
X85023540Y-40243394D01*
X85048313Y-40201684D01*
X85109447Y-40087335D01*
X85147758Y-39988969D01*
X85168517Y-39880609D01*
X85177001Y-39736276D01*
X85178500Y-39560477D01*
X85177147Y-39368894D01*
X85170059Y-39241468D01*
X85152687Y-39157701D01*
X85120484Y-39097089D01*
X85068904Y-39039135D01*
X85061121Y-39031310D01*
X84973633Y-38958728D01*
X84878009Y-38923708D01*
X84738310Y-38913902D01*
X84719159Y-38913833D01*
X84490358Y-38952037D01*
X84298282Y-39065650D01*
X84144243Y-39253177D01*
X84029559Y-39513118D01*
X83967454Y-39769781D01*
X83948641Y-40039551D01*
X83447715Y-40039551D01*
X83447781Y-39972167D01*
X83487603Y-39597285D01*
X83593688Y-39267860D01*
X83763327Y-38988683D01*
X83993806Y-38764546D01*
X84204018Y-38635909D01*
X84350096Y-38567628D01*
X84464465Y-38529077D01*
X84580867Y-38513927D01*
X84733044Y-38515849D01*
G36*
X88366865Y-39176341D02*
G01*
X88371076Y-39178482D01*
X88523448Y-39297201D01*
X88621177Y-39472133D01*
X88666782Y-39708722D01*
X88671000Y-39826381D01*
X88643315Y-40142697D01*
X88556409Y-40408569D01*
X88404506Y-40639222D01*
X88333462Y-40715903D01*
X88129661Y-40875279D01*
X87909598Y-40970639D01*
X87688694Y-40999413D01*
X87482372Y-40959035D01*
X87344781Y-40880497D01*
X87242252Y-40799849D01*
X87191887Y-41063341D01*
X87157439Y-41234155D01*
X87121591Y-41397459D01*
X87100295Y-41485583D01*
X87059069Y-41644333D01*
X86822930Y-41644333D01*
X86689253Y-41641706D01*
X86621976Y-41628783D01*
X86602877Y-41597997D01*
X86609918Y-41555898D01*
X86624408Y-41492449D01*
X86653714Y-41357694D01*
X86695370Y-41163208D01*
X86746908Y-40920570D01*
X86805860Y-40641356D01*
X86867635Y-40347257D01*
X87380363Y-40347257D01*
X87433577Y-40493491D01*
X87538707Y-40576603D01*
X87570671Y-40586474D01*
X87750708Y-40595146D01*
X87908027Y-40524725D01*
X87972163Y-40468958D01*
X88044978Y-40366676D01*
X88114931Y-40221210D01*
X88148407Y-40125152D01*
X88186044Y-39978112D01*
X88194652Y-39873094D01*
X88175142Y-39772926D01*
X88158291Y-39721965D01*
X88078148Y-39580166D01*
X87970861Y-39507961D01*
X87847472Y-39499378D01*
X87719025Y-39548443D01*
X87596561Y-39649184D01*
X87491124Y-39795630D01*
X87413755Y-39981808D01*
X87380977Y-40142379D01*
X87380363Y-40347257D01*
X86867635Y-40347257D01*
X86869760Y-40337145D01*
X86876061Y-40307065D01*
X87119078Y-39146667D01*
X87344705Y-39146667D01*
X87476846Y-39150655D01*
X87544727Y-39167610D01*
X87568576Y-39205015D01*
X87570333Y-39230142D01*
X87575083Y-39276016D01*
X87601688Y-39286673D01*
X87668680Y-39260120D01*
X87767138Y-39208975D01*
X87981302Y-39123978D01*
X88175122Y-39113407D01*
X88366865Y-39176341D01*
G37*
X88366865Y-39176341D02*
X88371076Y-39178482D01*
X88523448Y-39297201D01*
X88621177Y-39472133D01*
X88666782Y-39708722D01*
X88671000Y-39826381D01*
X88643315Y-40142697D01*
X88556409Y-40408569D01*
X88404506Y-40639222D01*
X88333462Y-40715903D01*
X88129661Y-40875279D01*
X87909598Y-40970639D01*
X87688694Y-40999413D01*
X87482372Y-40959035D01*
X87344781Y-40880497D01*
X87242252Y-40799849D01*
X87191887Y-41063341D01*
X87157439Y-41234155D01*
X87121591Y-41397459D01*
X87100295Y-41485583D01*
X87059069Y-41644333D01*
X86822930Y-41644333D01*
X86689253Y-41641706D01*
X86621976Y-41628783D01*
X86602877Y-41597997D01*
X86609918Y-41555898D01*
X86624408Y-41492449D01*
X86653714Y-41357694D01*
X86695370Y-41163208D01*
X86746908Y-40920570D01*
X86805860Y-40641356D01*
X86867635Y-40347257D01*
X87380363Y-40347257D01*
X87433577Y-40493491D01*
X87538707Y-40576603D01*
X87570671Y-40586474D01*
X87750708Y-40595146D01*
X87908027Y-40524725D01*
X87972163Y-40468958D01*
X88044978Y-40366676D01*
X88114931Y-40221210D01*
X88148407Y-40125152D01*
X88186044Y-39978112D01*
X88194652Y-39873094D01*
X88175142Y-39772926D01*
X88158291Y-39721965D01*
X88078148Y-39580166D01*
X87970861Y-39507961D01*
X87847472Y-39499378D01*
X87719025Y-39548443D01*
X87596561Y-39649184D01*
X87491124Y-39795630D01*
X87413755Y-39981808D01*
X87380977Y-40142379D01*
X87380363Y-40347257D01*
X86867635Y-40347257D01*
X86869760Y-40337145D01*
X86876061Y-40307065D01*
X87119078Y-39146667D01*
X87344705Y-39146667D01*
X87476846Y-39150655D01*
X87544727Y-39167610D01*
X87568576Y-39205015D01*
X87570333Y-39230142D01*
X87575083Y-39276016D01*
X87601688Y-39286673D01*
X87668680Y-39260120D01*
X87767138Y-39208975D01*
X87981302Y-39123978D01*
X88175122Y-39113407D01*
X88366865Y-39176341D01*
D11*
X112200000Y-133750000D03*
X119200000Y-133750000D03*
X112200000Y-145750000D03*
X119200000Y-145750000D03*
D12*
X112500000Y-55750000D03*
X87500000Y-55750000D03*
D13*
X112500000Y-82600000D03*
X112500000Y-68900000D03*
D14*
X112500000Y-75750000D03*
D13*
X87500000Y-68900000D03*
X87500000Y-82600000D03*
D14*
X87500000Y-75750000D03*
D13*
X112500000Y-107600000D03*
X112500000Y-93900000D03*
D14*
X112500000Y-100750000D03*
D13*
X87500000Y-93900000D03*
X87500000Y-107600000D03*
D14*
X87500000Y-100750000D03*
D15*
X94100000Y-119150000D03*
D16*
X87500000Y-125750000D03*
D17*
X79750000Y-148250000D03*
D18*
X77250000Y-148250000D03*
D19*
X115690000Y-118150000D03*
D20*
X115690000Y-125350000D03*
D21*
X122890000Y-117260000D03*
X122890000Y-126240000D03*
X116940000Y-125880000D03*
X116940000Y-117620000D03*
D22*
X109525000Y-125892000D03*
X111557000Y-125892000D03*
X110541000Y-120812000D03*
M02*
