G04 #@! TF.GenerationSoftware,KiCad,Pcbnew,5.1.5+dfsg1-2build2*
G04 #@! TF.CreationDate,2021-03-23T15:32:05+01:00*
G04 #@! TF.ProjectId,OpenThereminV4,4f70656e-5468-4657-9265-6d696e56342e,rev?*
G04 #@! TF.SameCoordinates,Original*
G04 #@! TF.FileFunction,Legend,Top*
G04 #@! TF.FilePolarity,Positive*
%FSLAX46Y46*%
G04 Gerber Fmt 4.6, Leading zero omitted, Abs format (unit mm)*
G04 Created by KiCad (PCBNEW 5.1.5+dfsg1-2build2) date 2021-03-23 15:32:05*
%MOMM*%
%LPD*%
G04 APERTURE LIST*
%ADD10C,0.150000*%
%ADD11C,0.200000*%
G04 APERTURE END LIST*
D10*
X40630895Y-160920380D02*
X41297561Y-160920380D01*
X40868990Y-161920380D01*
X42107085Y-161253714D02*
X42107085Y-161920380D01*
X41868990Y-160872761D02*
X41630895Y-161587047D01*
X42249942Y-161587047D01*
X42535657Y-160920380D02*
X43202323Y-160920380D01*
X42773752Y-161920380D01*
X44011847Y-161253714D02*
X44011847Y-161920380D01*
X43773752Y-160872761D02*
X43535657Y-161587047D01*
X44154704Y-161587047D01*
X48552704Y-156840380D02*
X48552704Y-155840380D01*
X48886038Y-156554666D01*
X49219371Y-155840380D01*
X49219371Y-156840380D01*
X50266990Y-156745142D02*
X50219371Y-156792761D01*
X50076514Y-156840380D01*
X49981276Y-156840380D01*
X49838419Y-156792761D01*
X49743180Y-156697523D01*
X49695561Y-156602285D01*
X49647942Y-156411809D01*
X49647942Y-156268952D01*
X49695561Y-156078476D01*
X49743180Y-155983238D01*
X49838419Y-155888000D01*
X49981276Y-155840380D01*
X50076514Y-155840380D01*
X50219371Y-155888000D01*
X50266990Y-155935619D01*
X50695561Y-156840380D02*
X50695561Y-155840380D01*
X51076514Y-155840380D01*
X51171752Y-155888000D01*
X51219371Y-155935619D01*
X51266990Y-156030857D01*
X51266990Y-156173714D01*
X51219371Y-156268952D01*
X51171752Y-156316571D01*
X51076514Y-156364190D01*
X50695561Y-156364190D01*
X52124133Y-156173714D02*
X52124133Y-156840380D01*
X51886038Y-155792761D02*
X51647942Y-156507047D01*
X52266990Y-156507047D01*
X52695561Y-156840380D02*
X52886038Y-156840380D01*
X52981276Y-156792761D01*
X53028895Y-156745142D01*
X53124133Y-156602285D01*
X53171752Y-156411809D01*
X53171752Y-156030857D01*
X53124133Y-155935619D01*
X53076514Y-155888000D01*
X52981276Y-155840380D01*
X52790800Y-155840380D01*
X52695561Y-155888000D01*
X52647942Y-155935619D01*
X52600323Y-156030857D01*
X52600323Y-156268952D01*
X52647942Y-156364190D01*
X52695561Y-156411809D01*
X52790800Y-156459428D01*
X52981276Y-156459428D01*
X53076514Y-156411809D01*
X53124133Y-156364190D01*
X53171752Y-156268952D01*
X53552704Y-155935619D02*
X53600323Y-155888000D01*
X53695561Y-155840380D01*
X53933657Y-155840380D01*
X54028895Y-155888000D01*
X54076514Y-155935619D01*
X54124133Y-156030857D01*
X54124133Y-156126095D01*
X54076514Y-156268952D01*
X53505085Y-156840380D01*
X54124133Y-156840380D01*
X55076514Y-156840380D02*
X54505085Y-156840380D01*
X54790800Y-156840380D02*
X54790800Y-155840380D01*
X54695561Y-155983238D01*
X54600323Y-156078476D01*
X54505085Y-156126095D01*
X40138704Y-156427714D02*
X40138704Y-157094380D01*
X39900609Y-156046761D02*
X39662514Y-156761047D01*
X40281561Y-156761047D01*
X40852990Y-156094380D02*
X40948228Y-156094380D01*
X41043466Y-156142000D01*
X41091085Y-156189619D01*
X41138704Y-156284857D01*
X41186323Y-156475333D01*
X41186323Y-156713428D01*
X41138704Y-156903904D01*
X41091085Y-156999142D01*
X41043466Y-157046761D01*
X40948228Y-157094380D01*
X40852990Y-157094380D01*
X40757752Y-157046761D01*
X40710133Y-156999142D01*
X40662514Y-156903904D01*
X40614895Y-156713428D01*
X40614895Y-156475333D01*
X40662514Y-156284857D01*
X40710133Y-156189619D01*
X40757752Y-156142000D01*
X40852990Y-156094380D01*
X42043466Y-156094380D02*
X41852990Y-156094380D01*
X41757752Y-156142000D01*
X41710133Y-156189619D01*
X41614895Y-156332476D01*
X41567276Y-156522952D01*
X41567276Y-156903904D01*
X41614895Y-156999142D01*
X41662514Y-157046761D01*
X41757752Y-157094380D01*
X41948228Y-157094380D01*
X42043466Y-157046761D01*
X42091085Y-156999142D01*
X42138704Y-156903904D01*
X42138704Y-156665809D01*
X42091085Y-156570571D01*
X42043466Y-156522952D01*
X41948228Y-156475333D01*
X41757752Y-156475333D01*
X41662514Y-156522952D01*
X41614895Y-156570571D01*
X41567276Y-156665809D01*
X42757752Y-156094380D02*
X42852990Y-156094380D01*
X42948228Y-156142000D01*
X42995847Y-156189619D01*
X43043466Y-156284857D01*
X43091085Y-156475333D01*
X43091085Y-156713428D01*
X43043466Y-156903904D01*
X42995847Y-156999142D01*
X42948228Y-157046761D01*
X42852990Y-157094380D01*
X42757752Y-157094380D01*
X42662514Y-157046761D01*
X42614895Y-156999142D01*
X42567276Y-156903904D01*
X42519657Y-156713428D01*
X42519657Y-156475333D01*
X42567276Y-156284857D01*
X42614895Y-156189619D01*
X42662514Y-156142000D01*
X42757752Y-156094380D01*
X47536704Y-159380380D02*
X47536704Y-158380380D01*
X47870038Y-159094666D01*
X48203371Y-158380380D01*
X48203371Y-159380380D01*
X49250990Y-159285142D02*
X49203371Y-159332761D01*
X49060514Y-159380380D01*
X48965276Y-159380380D01*
X48822419Y-159332761D01*
X48727180Y-159237523D01*
X48679561Y-159142285D01*
X48631942Y-158951809D01*
X48631942Y-158808952D01*
X48679561Y-158618476D01*
X48727180Y-158523238D01*
X48822419Y-158428000D01*
X48965276Y-158380380D01*
X49060514Y-158380380D01*
X49203371Y-158428000D01*
X49250990Y-158475619D01*
X49679561Y-159380380D02*
X49679561Y-158380380D01*
X50060514Y-158380380D01*
X50155752Y-158428000D01*
X50203371Y-158475619D01*
X50250990Y-158570857D01*
X50250990Y-158713714D01*
X50203371Y-158808952D01*
X50155752Y-158856571D01*
X50060514Y-158904190D01*
X49679561Y-158904190D01*
X51108133Y-158380380D02*
X50917657Y-158380380D01*
X50822419Y-158428000D01*
X50774800Y-158475619D01*
X50679561Y-158618476D01*
X50631942Y-158808952D01*
X50631942Y-159189904D01*
X50679561Y-159285142D01*
X50727180Y-159332761D01*
X50822419Y-159380380D01*
X51012895Y-159380380D01*
X51108133Y-159332761D01*
X51155752Y-159285142D01*
X51203371Y-159189904D01*
X51203371Y-158951809D01*
X51155752Y-158856571D01*
X51108133Y-158808952D01*
X51012895Y-158761333D01*
X50822419Y-158761333D01*
X50727180Y-158808952D01*
X50679561Y-158856571D01*
X50631942Y-158951809D01*
X51822419Y-158380380D02*
X51917657Y-158380380D01*
X52012895Y-158428000D01*
X52060514Y-158475619D01*
X52108133Y-158570857D01*
X52155752Y-158761333D01*
X52155752Y-158999428D01*
X52108133Y-159189904D01*
X52060514Y-159285142D01*
X52012895Y-159332761D01*
X51917657Y-159380380D01*
X51822419Y-159380380D01*
X51727180Y-159332761D01*
X51679561Y-159285142D01*
X51631942Y-159189904D01*
X51584323Y-158999428D01*
X51584323Y-158761333D01*
X51631942Y-158570857D01*
X51679561Y-158475619D01*
X51727180Y-158428000D01*
X51822419Y-158380380D01*
X52774800Y-158380380D02*
X52870038Y-158380380D01*
X52965276Y-158428000D01*
X53012895Y-158475619D01*
X53060514Y-158570857D01*
X53108133Y-158761333D01*
X53108133Y-158999428D01*
X53060514Y-159189904D01*
X53012895Y-159285142D01*
X52965276Y-159332761D01*
X52870038Y-159380380D01*
X52774800Y-159380380D01*
X52679561Y-159332761D01*
X52631942Y-159285142D01*
X52584323Y-159189904D01*
X52536704Y-158999428D01*
X52536704Y-158761333D01*
X52584323Y-158570857D01*
X52631942Y-158475619D01*
X52679561Y-158428000D01*
X52774800Y-158380380D01*
X53489085Y-158475619D02*
X53536704Y-158428000D01*
X53631942Y-158380380D01*
X53870038Y-158380380D01*
X53965276Y-158428000D01*
X54012895Y-158475619D01*
X54060514Y-158570857D01*
X54060514Y-158666095D01*
X54012895Y-158808952D01*
X53441466Y-159380380D01*
X54060514Y-159380380D01*
X54140704Y-154300380D02*
X54140704Y-153300380D01*
X54474038Y-154014666D01*
X54807371Y-153300380D01*
X54807371Y-154300380D01*
X55854990Y-154205142D02*
X55807371Y-154252761D01*
X55664514Y-154300380D01*
X55569276Y-154300380D01*
X55426419Y-154252761D01*
X55331180Y-154157523D01*
X55283561Y-154062285D01*
X55235942Y-153871809D01*
X55235942Y-153728952D01*
X55283561Y-153538476D01*
X55331180Y-153443238D01*
X55426419Y-153348000D01*
X55569276Y-153300380D01*
X55664514Y-153300380D01*
X55807371Y-153348000D01*
X55854990Y-153395619D01*
X56283561Y-154300380D02*
X56283561Y-153300380D01*
X56664514Y-153300380D01*
X56759752Y-153348000D01*
X56807371Y-153395619D01*
X56854990Y-153490857D01*
X56854990Y-153633714D01*
X56807371Y-153728952D01*
X56759752Y-153776571D01*
X56664514Y-153824190D01*
X56283561Y-153824190D01*
X57712133Y-153633714D02*
X57712133Y-154300380D01*
X57474038Y-153252761D02*
X57235942Y-153967047D01*
X57854990Y-153967047D01*
X58283561Y-154300380D02*
X58474038Y-154300380D01*
X58569276Y-154252761D01*
X58616895Y-154205142D01*
X58712133Y-154062285D01*
X58759752Y-153871809D01*
X58759752Y-153490857D01*
X58712133Y-153395619D01*
X58664514Y-153348000D01*
X58569276Y-153300380D01*
X58378800Y-153300380D01*
X58283561Y-153348000D01*
X58235942Y-153395619D01*
X58188323Y-153490857D01*
X58188323Y-153728952D01*
X58235942Y-153824190D01*
X58283561Y-153871809D01*
X58378800Y-153919428D01*
X58569276Y-153919428D01*
X58664514Y-153871809D01*
X58712133Y-153824190D01*
X58759752Y-153728952D01*
X59140704Y-153395619D02*
X59188323Y-153348000D01*
X59283561Y-153300380D01*
X59521657Y-153300380D01*
X59616895Y-153348000D01*
X59664514Y-153395619D01*
X59712133Y-153490857D01*
X59712133Y-153586095D01*
X59664514Y-153728952D01*
X59093085Y-154300380D01*
X59712133Y-154300380D01*
X60093085Y-153395619D02*
X60140704Y-153348000D01*
X60235942Y-153300380D01*
X60474038Y-153300380D01*
X60569276Y-153348000D01*
X60616895Y-153395619D01*
X60664514Y-153490857D01*
X60664514Y-153586095D01*
X60616895Y-153728952D01*
X60045466Y-154300380D01*
X60664514Y-154300380D01*
X48876304Y-148706114D02*
X48876304Y-149372780D01*
X48638209Y-148325161D02*
X48400114Y-149039447D01*
X49019161Y-149039447D01*
X49590590Y-148372780D02*
X49685828Y-148372780D01*
X49781066Y-148420400D01*
X49828685Y-148468019D01*
X49876304Y-148563257D01*
X49923923Y-148753733D01*
X49923923Y-148991828D01*
X49876304Y-149182304D01*
X49828685Y-149277542D01*
X49781066Y-149325161D01*
X49685828Y-149372780D01*
X49590590Y-149372780D01*
X49495352Y-149325161D01*
X49447733Y-149277542D01*
X49400114Y-149182304D01*
X49352495Y-148991828D01*
X49352495Y-148753733D01*
X49400114Y-148563257D01*
X49447733Y-148468019D01*
X49495352Y-148420400D01*
X49590590Y-148372780D01*
X50781066Y-148372780D02*
X50590590Y-148372780D01*
X50495352Y-148420400D01*
X50447733Y-148468019D01*
X50352495Y-148610876D01*
X50304876Y-148801352D01*
X50304876Y-149182304D01*
X50352495Y-149277542D01*
X50400114Y-149325161D01*
X50495352Y-149372780D01*
X50685828Y-149372780D01*
X50781066Y-149325161D01*
X50828685Y-149277542D01*
X50876304Y-149182304D01*
X50876304Y-148944209D01*
X50828685Y-148848971D01*
X50781066Y-148801352D01*
X50685828Y-148753733D01*
X50495352Y-148753733D01*
X50400114Y-148801352D01*
X50352495Y-148848971D01*
X50304876Y-148944209D01*
X51352495Y-149372780D02*
X51542971Y-149372780D01*
X51638209Y-149325161D01*
X51685828Y-149277542D01*
X51781066Y-149134685D01*
X51828685Y-148944209D01*
X51828685Y-148563257D01*
X51781066Y-148468019D01*
X51733447Y-148420400D01*
X51638209Y-148372780D01*
X51447733Y-148372780D01*
X51352495Y-148420400D01*
X51304876Y-148468019D01*
X51257257Y-148563257D01*
X51257257Y-148801352D01*
X51304876Y-148896590D01*
X51352495Y-148944209D01*
X51447733Y-148991828D01*
X51638209Y-148991828D01*
X51733447Y-148944209D01*
X51781066Y-148896590D01*
X51828685Y-148801352D01*
D11*
X64440476Y-158380380D02*
X64773809Y-159380380D01*
X65107142Y-158380380D01*
X65345238Y-158380380D02*
X65964285Y-158380380D01*
X65630952Y-158761333D01*
X65773809Y-158761333D01*
X65869047Y-158808952D01*
X65916666Y-158856571D01*
X65964285Y-158951809D01*
X65964285Y-159189904D01*
X65916666Y-159285142D01*
X65869047Y-159332761D01*
X65773809Y-159380380D01*
X65488095Y-159380380D01*
X65392857Y-159332761D01*
X65345238Y-159285142D01*
X66392857Y-159285142D02*
X66440476Y-159332761D01*
X66392857Y-159380380D01*
X66345238Y-159332761D01*
X66392857Y-159285142D01*
X66392857Y-159380380D01*
X67059523Y-158380380D02*
X67154761Y-158380380D01*
X67250000Y-158428000D01*
X67297619Y-158475619D01*
X67345238Y-158570857D01*
X67392857Y-158761333D01*
X67392857Y-158999428D01*
X67345238Y-159189904D01*
X67297619Y-159285142D01*
X67250000Y-159332761D01*
X67154761Y-159380380D01*
X67059523Y-159380380D01*
X66964285Y-159332761D01*
X66916666Y-159285142D01*
X66869047Y-159189904D01*
X66821428Y-158999428D01*
X66821428Y-158761333D01*
X66869047Y-158570857D01*
X66916666Y-158475619D01*
X66964285Y-158428000D01*
X67059523Y-158380380D01*
X68535714Y-158475619D02*
X68583333Y-158428000D01*
X68678571Y-158380380D01*
X68916666Y-158380380D01*
X69011904Y-158428000D01*
X69059523Y-158475619D01*
X69107142Y-158570857D01*
X69107142Y-158666095D01*
X69059523Y-158808952D01*
X68488095Y-159380380D01*
X69107142Y-159380380D01*
X69726190Y-158380380D02*
X69821428Y-158380380D01*
X69916666Y-158428000D01*
X69964285Y-158475619D01*
X70011904Y-158570857D01*
X70059523Y-158761333D01*
X70059523Y-158999428D01*
X70011904Y-159189904D01*
X69964285Y-159285142D01*
X69916666Y-159332761D01*
X69821428Y-159380380D01*
X69726190Y-159380380D01*
X69630952Y-159332761D01*
X69583333Y-159285142D01*
X69535714Y-159189904D01*
X69488095Y-158999428D01*
X69488095Y-158761333D01*
X69535714Y-158570857D01*
X69583333Y-158475619D01*
X69630952Y-158428000D01*
X69726190Y-158380380D01*
X71011904Y-159380380D02*
X70440476Y-159380380D01*
X70726190Y-159380380D02*
X70726190Y-158380380D01*
X70630952Y-158523238D01*
X70535714Y-158618476D01*
X70440476Y-158666095D01*
X71869047Y-158380380D02*
X71678571Y-158380380D01*
X71583333Y-158428000D01*
X71535714Y-158475619D01*
X71440476Y-158618476D01*
X71392857Y-158808952D01*
X71392857Y-159189904D01*
X71440476Y-159285142D01*
X71488095Y-159332761D01*
X71583333Y-159380380D01*
X71773809Y-159380380D01*
X71869047Y-159332761D01*
X71916666Y-159285142D01*
X71964285Y-159189904D01*
X71964285Y-158951809D01*
X71916666Y-158856571D01*
X71869047Y-158808952D01*
X71773809Y-158761333D01*
X71583333Y-158761333D01*
X71488095Y-158808952D01*
X71440476Y-158856571D01*
X71392857Y-158951809D01*
D10*
X58657085Y-150249200D02*
X58561847Y-150201580D01*
X58418990Y-150201580D01*
X58276133Y-150249200D01*
X58180895Y-150344438D01*
X58133276Y-150439676D01*
X58085657Y-150630152D01*
X58085657Y-150773009D01*
X58133276Y-150963485D01*
X58180895Y-151058723D01*
X58276133Y-151153961D01*
X58418990Y-151201580D01*
X58514228Y-151201580D01*
X58657085Y-151153961D01*
X58704704Y-151106342D01*
X58704704Y-150773009D01*
X58514228Y-150773009D01*
X59704704Y-151201580D02*
X59371371Y-150725390D01*
X59133276Y-151201580D02*
X59133276Y-150201580D01*
X59514228Y-150201580D01*
X59609466Y-150249200D01*
X59657085Y-150296819D01*
X59704704Y-150392057D01*
X59704704Y-150534914D01*
X59657085Y-150630152D01*
X59609466Y-150677771D01*
X59514228Y-150725390D01*
X59133276Y-150725390D01*
X60323752Y-150201580D02*
X60514228Y-150201580D01*
X60609466Y-150249200D01*
X60704704Y-150344438D01*
X60752323Y-150534914D01*
X60752323Y-150868247D01*
X60704704Y-151058723D01*
X60609466Y-151153961D01*
X60514228Y-151201580D01*
X60323752Y-151201580D01*
X60228514Y-151153961D01*
X60133276Y-151058723D01*
X60085657Y-150868247D01*
X60085657Y-150534914D01*
X60133276Y-150344438D01*
X60228514Y-150249200D01*
X60323752Y-150201580D01*
X61180895Y-150201580D02*
X61180895Y-151011104D01*
X61228514Y-151106342D01*
X61276133Y-151153961D01*
X61371371Y-151201580D01*
X61561847Y-151201580D01*
X61657085Y-151153961D01*
X61704704Y-151106342D01*
X61752323Y-151011104D01*
X61752323Y-150201580D01*
X62228514Y-151201580D02*
X62228514Y-150201580D01*
X62799942Y-151201580D01*
X62799942Y-150201580D01*
X63276133Y-151201580D02*
X63276133Y-150201580D01*
X63514228Y-150201580D01*
X63657085Y-150249200D01*
X63752323Y-150344438D01*
X63799942Y-150439676D01*
X63847561Y-150630152D01*
X63847561Y-150773009D01*
X63799942Y-150963485D01*
X63752323Y-151058723D01*
X63657085Y-151153961D01*
X63514228Y-151201580D01*
X63276133Y-151201580D01*
X64799942Y-151201580D02*
X64228514Y-151201580D01*
X64514228Y-151201580D02*
X64514228Y-150201580D01*
X64418990Y-150344438D01*
X64323752Y-150439676D01*
X64228514Y-150487295D01*
X66361238Y-38320380D02*
X66599333Y-39320380D01*
X66789809Y-38606095D01*
X66980285Y-39320380D01*
X67218380Y-38320380D01*
X68123142Y-39320380D02*
X67551714Y-39320380D01*
X67837428Y-39320380D02*
X67837428Y-38320380D01*
X67742190Y-38463238D01*
X67646952Y-38558476D01*
X67551714Y-38606095D01*
X128469238Y-165754380D02*
X128707333Y-166754380D01*
X128897809Y-166040095D01*
X129088285Y-166754380D01*
X129326380Y-165754380D01*
X129659714Y-165849619D02*
X129707333Y-165802000D01*
X129802571Y-165754380D01*
X130040666Y-165754380D01*
X130135904Y-165802000D01*
X130183523Y-165849619D01*
X130231142Y-165944857D01*
X130231142Y-166040095D01*
X130183523Y-166182952D01*
X129612095Y-166754380D01*
X130231142Y-166754380D01*
M02*
