G04 #@! TF.GenerationSoftware,KiCad,Pcbnew,6.0.11-2627ca5db0~126~ubuntu22.04.1*
G04 #@! TF.CreationDate,2023-07-01T13:56:55+02:00*
G04 #@! TF.ProjectId,OpenThereminV41,4f70656e-5468-4657-9265-6d696e563431,rev?*
G04 #@! TF.SameCoordinates,Original*
G04 #@! TF.FileFunction,Paste,Bot*
G04 #@! TF.FilePolarity,Positive*
%FSLAX46Y46*%
G04 Gerber Fmt 4.6, Leading zero omitted, Abs format (unit mm)*
G04 Created by KiCad (PCBNEW 6.0.11-2627ca5db0~126~ubuntu22.04.1) date 2023-07-01 13:56:55*
%MOMM*%
%LPD*%
G01*
G04 APERTURE LIST*
G04 Aperture macros list*
%AMRoundRect*
0 Rectangle with rounded corners*
0 $1 Rounding radius*
0 $2 $3 $4 $5 $6 $7 $8 $9 X,Y pos of 4 corners*
0 Add a 4 corners polygon primitive as box body*
4,1,4,$2,$3,$4,$5,$6,$7,$8,$9,$2,$3,0*
0 Add four circle primitives for the rounded corners*
1,1,$1+$1,$2,$3*
1,1,$1+$1,$4,$5*
1,1,$1+$1,$6,$7*
1,1,$1+$1,$8,$9*
0 Add four rect primitives between the rounded corners*
20,1,$1+$1,$2,$3,$4,$5,0*
20,1,$1+$1,$4,$5,$6,$7,0*
20,1,$1+$1,$6,$7,$8,$9,0*
20,1,$1+$1,$8,$9,$2,$3,0*%
%AMRotRect*
0 Rectangle, with rotation*
0 The origin of the aperture is its center*
0 $1 length*
0 $2 width*
0 $3 Rotation angle, in degrees counterclockwise*
0 Add horizontal line*
21,1,$1,$2,0,0,$3*%
G04 Aperture macros list end*
%ADD10O,2.200000X1.500000*%
%ADD11R,3.500000X3.000000*%
%ADD12R,0.700000X0.300000*%
%ADD13O,1.400000X0.800000*%
%ADD14R,0.800100X0.800100*%
%ADD15RoundRect,0.218750X0.256250X-0.218750X0.256250X0.218750X-0.256250X0.218750X-0.256250X-0.218750X0*%
%ADD16RoundRect,0.218750X-0.256250X0.218750X-0.256250X-0.218750X0.256250X-0.218750X0.256250X0.218750X0*%
%ADD17RoundRect,0.218750X0.218750X0.256250X-0.218750X0.256250X-0.218750X-0.256250X0.218750X-0.256250X0*%
%ADD18RoundRect,0.218750X-0.218750X-0.256250X0.218750X-0.256250X0.218750X0.256250X-0.218750X0.256250X0*%
%ADD19RoundRect,0.150000X0.150000X-0.825000X0.150000X0.825000X-0.150000X0.825000X-0.150000X-0.825000X0*%
%ADD20RoundRect,0.150000X-0.825000X-0.150000X0.825000X-0.150000X0.825000X0.150000X-0.825000X0.150000X0*%
%ADD21RoundRect,0.150000X-0.150000X0.825000X-0.150000X-0.825000X0.150000X-0.825000X0.150000X0.825000X0*%
%ADD22R,1.060000X0.650000*%
%ADD23R,4.500000X2.000000*%
%ADD24RotRect,0.900000X0.850000X135.000000*%
%ADD25RoundRect,0.150000X0.825000X0.150000X-0.825000X0.150000X-0.825000X-0.150000X0.825000X-0.150000X0*%
%ADD26R,2.200000X2.800000*%
%ADD27R,2.800000X2.800000*%
%ADD28R,2.600000X2.800000*%
%ADD29RotRect,1.600000X0.550000X45.000000*%
%ADD30RotRect,1.600000X0.550000X315.000000*%
%ADD31R,2.000000X1.500000*%
%ADD32R,2.400000X0.740000*%
G04 APERTURE END LIST*
D10*
X112500000Y-107600000D03*
X112500000Y-93900000D03*
D11*
X105350000Y-96250000D03*
X119150000Y-100750000D03*
X105350000Y-105250000D03*
D10*
X112500000Y-82600000D03*
X112500000Y-68900000D03*
D11*
X105350000Y-71250000D03*
X119150000Y-75750000D03*
X105350000Y-80250000D03*
D12*
X115030000Y-119000000D03*
X115030000Y-119500000D03*
X115030000Y-120000000D03*
X115030000Y-120500000D03*
X115030000Y-121000000D03*
X115030000Y-121500000D03*
X115030000Y-122000000D03*
X115030000Y-122500000D03*
X115030000Y-123000000D03*
X115030000Y-123500000D03*
X115030000Y-124000000D03*
X115030000Y-124500000D03*
X116730000Y-124250000D03*
X116730000Y-123750000D03*
X116730000Y-123250000D03*
X116730000Y-122750000D03*
X116730000Y-122250000D03*
X116730000Y-121750000D03*
X116730000Y-121250000D03*
X116730000Y-120750000D03*
X116730000Y-120250000D03*
X116730000Y-119750000D03*
X116730000Y-119250000D03*
X116730000Y-118750000D03*
D13*
X122890000Y-126240000D03*
X122890000Y-117260000D03*
X116940000Y-117620000D03*
X116940000Y-125880000D03*
D14*
X88824000Y-91237000D03*
X86924000Y-91237000D03*
X87874000Y-89238020D03*
D15*
X85014000Y-86919000D03*
X85014000Y-85344000D03*
X83236000Y-86919000D03*
X83236000Y-85344000D03*
D16*
X81204000Y-88773000D03*
X81204000Y-90348000D03*
X83109000Y-89535000D03*
X83109000Y-91110000D03*
D15*
X88697000Y-150063500D03*
X88697000Y-148488500D03*
D16*
X94348500Y-141122500D03*
X94348500Y-142697500D03*
X77648000Y-111912500D03*
X77648000Y-113487500D03*
X101079500Y-109690000D03*
X101079500Y-111265000D03*
D17*
X100762000Y-82474000D03*
X99187000Y-82474000D03*
X109550500Y-86919000D03*
X107975500Y-86919000D03*
X109296500Y-91110000D03*
X107721500Y-91110000D03*
D16*
X94158000Y-85344000D03*
X94158000Y-86919000D03*
D17*
X92253000Y-89332000D03*
X90678000Y-89332000D03*
D18*
X90678000Y-91110000D03*
X92253000Y-91110000D03*
D17*
X91770500Y-146990000D03*
X90195500Y-146990000D03*
D18*
X108142500Y-141290000D03*
X109717500Y-141290000D03*
D14*
X113076000Y-91250760D03*
X111176000Y-91250760D03*
X112126000Y-89251780D03*
D18*
X90678000Y-86919000D03*
X92253000Y-86919000D03*
D16*
X118796000Y-88773000D03*
X118796000Y-90348000D03*
D15*
X114986000Y-86919000D03*
X114986000Y-85344000D03*
D16*
X116891000Y-89560500D03*
X116891000Y-91135500D03*
D15*
X114986000Y-91135500D03*
X114986000Y-89560500D03*
X116891000Y-86919000D03*
X116891000Y-85344000D03*
D19*
X111684000Y-115110000D03*
X110414000Y-115110000D03*
X109144000Y-115110000D03*
X107874000Y-115110000D03*
X106604000Y-115110000D03*
X105334000Y-115110000D03*
X104064000Y-115110000D03*
X102794000Y-115110000D03*
X102794000Y-110160000D03*
X104064000Y-110160000D03*
X105334000Y-110160000D03*
X106604000Y-110160000D03*
X107874000Y-110160000D03*
X109144000Y-110160000D03*
X110414000Y-110160000D03*
X111684000Y-110160000D03*
D18*
X105562500Y-118415000D03*
X107137500Y-118415000D03*
D20*
X97525000Y-92060000D03*
X97525000Y-90790000D03*
X97525000Y-89520000D03*
X97525000Y-88250000D03*
X97525000Y-86980000D03*
X97525000Y-85710000D03*
X97525000Y-84440000D03*
X102475000Y-84440000D03*
X102475000Y-85710000D03*
X102475000Y-86980000D03*
X102475000Y-88250000D03*
X102475000Y-89520000D03*
X102475000Y-90790000D03*
X102475000Y-92060000D03*
D21*
X95047000Y-133339000D03*
X96317000Y-133339000D03*
X97587000Y-133339000D03*
X98857000Y-133339000D03*
X98857000Y-138289000D03*
X97587000Y-138289000D03*
X96317000Y-138289000D03*
X95047000Y-138289000D03*
D15*
X117272000Y-111455500D03*
X117272000Y-109880500D03*
D18*
X113944500Y-111684000D03*
X115519500Y-111684000D03*
X113944500Y-109906000D03*
X115519500Y-109906000D03*
X113960000Y-128830000D03*
X115535000Y-128830000D03*
D19*
X87300000Y-115175000D03*
X86030000Y-115175000D03*
X84760000Y-115175000D03*
X83490000Y-115175000D03*
X82220000Y-115175000D03*
X80950000Y-115175000D03*
X79680000Y-115175000D03*
X79680000Y-110225000D03*
X80950000Y-110225000D03*
X82220000Y-110225000D03*
X83490000Y-110225000D03*
X84760000Y-110225000D03*
X86030000Y-110225000D03*
X87300000Y-110225000D03*
D15*
X77648000Y-125425500D03*
X77648000Y-123850500D03*
D22*
X79934000Y-118100000D03*
X79934000Y-119050000D03*
X79934000Y-120000000D03*
X77734000Y-120000000D03*
X77734000Y-119050000D03*
X77734000Y-118100000D03*
D23*
X84007000Y-154491000D03*
X92507000Y-154491000D03*
D15*
X89586000Y-111709500D03*
X89586000Y-110134500D03*
D24*
X95673313Y-119910140D03*
X94860140Y-120723313D03*
X92526687Y-118389860D03*
X93339860Y-117576687D03*
D22*
X120320000Y-114470000D03*
X120320000Y-113520000D03*
X120320000Y-112570000D03*
X122520000Y-112570000D03*
X122520000Y-114470000D03*
D18*
X109347100Y-117830800D03*
X110922100Y-117830800D03*
D16*
X89586000Y-113690500D03*
X89586000Y-115265500D03*
D17*
X115964000Y-150808000D03*
X114389000Y-150808000D03*
D15*
X86665000Y-150038000D03*
X86665000Y-148463000D03*
D25*
X83298000Y-133782000D03*
X83298000Y-135052000D03*
X83298000Y-136322000D03*
X83298000Y-137592000D03*
X83298000Y-138862000D03*
X83298000Y-140132000D03*
X83298000Y-141402000D03*
X83298000Y-142672000D03*
X78348000Y-142672000D03*
X78348000Y-141402000D03*
X78348000Y-140132000D03*
X78348000Y-138862000D03*
X78348000Y-137592000D03*
X78348000Y-136322000D03*
X78348000Y-135052000D03*
X78348000Y-133782000D03*
D18*
X77876500Y-131877000D03*
X79451500Y-131877000D03*
D17*
X97866500Y-141021000D03*
X96291500Y-141021000D03*
X97866500Y-142608500D03*
X96291500Y-142608500D03*
X91199000Y-117145000D03*
X89624000Y-117145000D03*
D18*
X95999500Y-117653000D03*
X97574500Y-117653000D03*
X107721500Y-89332000D03*
X109296500Y-89332000D03*
D16*
X94158000Y-89535000D03*
X94158000Y-91110000D03*
D15*
X85014000Y-91110000D03*
X85014000Y-89535000D03*
D16*
X118796000Y-91872000D03*
X118796000Y-93447000D03*
D17*
X121996400Y-110744200D03*
X120421400Y-110744200D03*
D16*
X105842000Y-85344000D03*
X105842000Y-86919000D03*
X105842000Y-89512500D03*
X105842000Y-91087500D03*
X81204000Y-91872000D03*
X81204000Y-93447000D03*
D21*
X95047000Y-145277000D03*
X96317000Y-145277000D03*
X97587000Y-145277000D03*
X98857000Y-145277000D03*
X100127000Y-145277000D03*
X101397000Y-145277000D03*
X102667000Y-145277000D03*
X102667000Y-150227000D03*
X101397000Y-150227000D03*
X100127000Y-150227000D03*
X98857000Y-150227000D03*
X97587000Y-150227000D03*
X96317000Y-150227000D03*
X95047000Y-150227000D03*
D16*
X122103500Y-128166000D03*
X122103500Y-129741000D03*
D26*
X120300000Y-149450000D03*
X118300000Y-142050000D03*
D27*
X110900000Y-149450000D03*
D28*
X106900000Y-145000000D03*
D17*
X79197500Y-122098000D03*
X77622500Y-122098000D03*
D19*
X99238000Y-115110000D03*
X97968000Y-115110000D03*
X96698000Y-115110000D03*
X95428000Y-115110000D03*
X94158000Y-115110000D03*
X92888000Y-115110000D03*
X91618000Y-115110000D03*
X91618000Y-110160000D03*
X92888000Y-110160000D03*
X94158000Y-110160000D03*
X95428000Y-110160000D03*
X96698000Y-110160000D03*
X97968000Y-110160000D03*
X99238000Y-110160000D03*
D21*
X102642000Y-136380500D03*
X103912000Y-136380500D03*
X105182000Y-136380500D03*
X106452000Y-136380500D03*
X106452000Y-141330500D03*
X105182000Y-141330500D03*
X103912000Y-141330500D03*
X102642000Y-141330500D03*
D26*
X120300000Y-137450000D03*
X118300000Y-130050000D03*
D27*
X110900000Y-137450000D03*
D28*
X106900000Y-133000000D03*
D23*
X107493000Y-154491000D03*
X115993000Y-154491000D03*
D25*
X91618000Y-134544000D03*
X91618000Y-135814000D03*
X91618000Y-137084000D03*
X91618000Y-138354000D03*
X91618000Y-139624000D03*
X91618000Y-140894000D03*
X91618000Y-142164000D03*
X91618000Y-143434000D03*
X86668000Y-143434000D03*
X86668000Y-142164000D03*
X86668000Y-140894000D03*
X86668000Y-139624000D03*
X86668000Y-138354000D03*
X86668000Y-137084000D03*
X86668000Y-135814000D03*
X86668000Y-134544000D03*
D17*
X107836000Y-150808000D03*
X106261000Y-150808000D03*
D15*
X101016000Y-114503500D03*
X101016000Y-112928500D03*
D18*
X111612500Y-141310000D03*
X113187500Y-141310000D03*
D16*
X120579500Y-128166000D03*
X120579500Y-129741000D03*
D29*
X100468734Y-128925856D03*
X99903049Y-128360170D03*
X99337363Y-127794485D03*
X98771678Y-127228800D03*
X98205992Y-126663114D03*
X97640307Y-126097429D03*
X97074622Y-125531743D03*
X96508936Y-124966058D03*
D30*
X96508936Y-122915448D03*
X97074622Y-122349763D03*
X97640307Y-121784077D03*
X98205992Y-121218392D03*
X98771678Y-120652706D03*
X99337363Y-120087021D03*
X99903049Y-119521336D03*
X100468734Y-118955650D03*
D29*
X102519344Y-118955650D03*
X103085029Y-119521336D03*
X103650715Y-120087021D03*
X104216400Y-120652706D03*
X104782086Y-121218392D03*
X105347771Y-121784077D03*
X105913456Y-122349763D03*
X106479142Y-122915448D03*
D30*
X106479142Y-124966058D03*
X105913456Y-125531743D03*
X105347771Y-126097429D03*
X104782086Y-126663114D03*
X104216400Y-127228800D03*
X103650715Y-127794485D03*
X103085029Y-128360170D03*
X102519344Y-128925856D03*
D10*
X87500000Y-82600000D03*
X87500000Y-68900000D03*
D11*
X94650000Y-80250000D03*
X80850000Y-75750000D03*
X94650000Y-71250000D03*
D18*
X86882500Y-145490000D03*
X88457500Y-145490000D03*
D17*
X88457500Y-146980000D03*
X86882500Y-146980000D03*
D18*
X90195500Y-145466000D03*
X91770500Y-145466000D03*
D31*
X80140000Y-83020000D03*
X80140000Y-86720000D03*
X119860000Y-83020000D03*
X119860000Y-86720000D03*
D10*
X87500000Y-107600000D03*
X87500000Y-93900000D03*
D11*
X94650000Y-105250000D03*
X80850000Y-100750000D03*
X94650000Y-96250000D03*
D18*
X114897000Y-138488500D03*
X116472000Y-138488500D03*
X116255800Y-115240000D03*
X117830800Y-115240000D03*
X116295000Y-113530000D03*
X117870000Y-113530000D03*
D32*
X101950000Y-98210000D03*
X98050000Y-98210000D03*
X101950000Y-99480000D03*
X98050000Y-99480000D03*
X101950000Y-100750000D03*
X98050000Y-100750000D03*
X101950000Y-102020000D03*
X98050000Y-102020000D03*
X101950000Y-103290000D03*
X98050000Y-103290000D03*
M02*
